#N canvas 1034 23 482 798 12;
#N canvas 0 23 896 546 (subpatch) 0;
#X obj 114 16 vsl 15 120 0 120 0 0 empty empty empty 0 -9 0 10 -262144
-1 -1 9500 1;
#X floatatom 134 122 4 0 0 1 dB - -;
#X obj 114 234 s masterGain;
#X obj 138 67 tgl 15 0 empty empty empty 17 7 0 10 -258113 -262144
-1 0 1;
#X obj 384 45 s masterMute;
#X msg 266 14 0;
#X obj 266 -10 loadbang;
#X text 155 65 mute;
#X obj 79 -82 r~ out1;
#X obj 79 -58 env~;
#X obj 39 16 vu 15 120 empty empty -1 -8 0 10 -66577 -1 0 0;
#X obj 79 -34 - 100;
#X obj 129 -58 env~;
#X obj 57 16 vu 15 120 empty empty -1 -8 0 10 -66577 -1 1 0;
#X obj 129 -34 - 100;
#X obj 129 -82 r~ out2;
#X floatatom 3 95 0 0 0 3 CPU - -;
#X obj 79 -157 cputime;
#X obj 79 -263 loadbang;
#X obj 79 -193 metro 1000;
#X msg 79 -239 1;
#X floatatom 79 -211 0 0 0 0 - - -;
#X obj 79 -175 t b b;
#X obj 79 -117 * 0.1;
#X obj 79 -138 int;
#X obj 5 28 tgl 15 0 empty empty empty 17 7 0 10 -262144 -1 -1 1 1
;
#X msg 5 266 \; pd dsp \$1;
#X text 1 44 DSP;
#X obj 8 -84 loadbang;
#X msg 8 -60 1;
#X obj 134 145 dbtorms;
#X floatatom 134 169 5 0 0 0 - - -;
#X text 132 10 gain;
#X connect 0 0 1 0;
#X connect 1 0 30 0;
#X connect 3 0 4 0;
#X connect 5 0 3 0;
#X connect 6 0 5 0;
#X connect 8 0 9 0;
#X connect 9 0 11 0;
#X connect 11 0 10 0;
#X connect 12 0 14 0;
#X connect 14 0 13 0;
#X connect 15 0 12 0;
#X connect 17 0 24 0;
#X connect 18 0 20 0;
#X connect 19 0 22 0;
#X connect 20 0 21 0;
#X connect 21 0 19 0;
#X connect 22 0 17 0;
#X connect 22 1 17 1;
#X connect 23 0 16 0;
#X connect 24 0 23 0;
#X connect 25 0 26 0;
#X connect 28 0 29 0;
#X connect 29 0 25 0;
#X connect 30 0 31 0;
#X connect 31 0 2 0;
#X coords 0 1 100 -1 200 150 1 0 0;
#X restore 139 625 graph;
#N canvas 149 332 613 538 main 0;
#X obj 435 173 bng 15 250 50 0 empty empty empty 17 7 0 10 -262144
-1 -1;
#N canvas 84 46 1596 785 selection 0;
#X obj 12 28 inlet;
#X obj 193 162 bng 15 250 50 0 empty empty empty 17 7 0 10 -262144
-1 -1;
#X obj 193 182 t b b;
#X obj 193 230 until;
#X msg 233 206 0;
#X obj 193 254 f;
#X obj 12 195 bng 15 250 50 0 empty empty empty 17 7 0 10 -262144 -1
-1;
#X floatatom 12 360 5 0 0 0 - - -;
#X obj 12 215 t b b;
#X obj 12 263 until;
#X msg 52 239 0;
#X obj 12 287 f;
#X msg 363 17 symbol mgGA01_gene_now_g\$1;
#X msg 363 67 symbol mgGA01_gene_next_g\$1;
#X msg 363 41 set \$1;
#X msg 363 91 set \$1;
#X msg 363 117 symbol mgGA01_fitness_g\$1;
#X obj 12 336 array random;
#X msg 193 206 40;
#X msg 12 239 20;
#X obj 12 311 t b f;
#X text 143 25 評価付けと選択;
#X obj 216 515 random 20;
#X floatatom 290 516 5 0 0 0 - - -;
#X msg 290 539 symbol mgGA01_gene_now_g\$1;
#X obj 216 491 t b f;
#X obj 420 40 s sel_gene_now;
#X obj 420 90 s sel_gene_next;
#X obj 839 402 -;
#X obj 839 426 abs;
#X obj 889 402 -;
#X obj 889 426 abs;
#X obj 939 402 -;
#X obj 939 426 abs;
#X obj 989 402 -;
#X obj 989 426 abs;
#X obj 1039 402 -;
#X obj 1039 426 abs;
#X floatatom 839 476 5 0 0 0 - - -;
#X floatatom 889 476 5 0 0 0 - - -;
#X floatatom 939 476 5 0 0 0 - - -;
#X floatatom 989 476 5 0 0 0 - - -;
#X floatatom 1039 476 5 0 0 0 - - -;
#X floatatom 479 591 0 0 0 0 - - -;
#X obj 72 312 r sel_fitness;
#X obj 363 141 s sel_fitness;
#X obj 479 614 t f b;
#X obj 511 639 f;
#X obj 75 390 r sel_gene_next;
#X obj 72 437 r sel_gene_now;
#X obj 461 660 f;
#X floatatom 461 684 0 0 0 0 - - -;
#X obj 461 737 tabwrite;
#X obj 223 254 + 1;
#X obj 698 685 r sel_fitness;
#X msg 698 709 set \$1;
#N canvas 0 23 311 265 bitsplit 0;
#X obj 38 37 inlet;
#X floatatom 38 61 0 0 0 0 - - -;
#X floatatom 120 157 0 0 0 0 - - -;
#X floatatom 38 157 0 0 0 0 - - -;
#X obj 38 108 >> 8;
#X obj 120 108 & 255;
#X obj 38 132 & 255;
#X obj 38 181 outlet;
#X obj 120 181 outlet;
#X obj 38 84 t f f;
#X connect 0 0 1 0;
#X connect 1 0 9 0;
#X connect 2 0 8 0;
#X connect 3 0 7 0;
#X connect 4 0 6 0;
#X connect 5 0 2 0;
#X connect 6 0 3 0;
#X connect 9 0 4 0;
#X connect 9 1 5 0;
#X restore 569 328 pd bitsplit;
#N canvas 0 23 311 265 bitsplit 0;
#X obj 38 37 inlet;
#X floatatom 38 61 0 0 0 0 - - -;
#X floatatom 120 157 0 0 0 0 - - -;
#X floatatom 38 157 0 0 0 0 - - -;
#X obj 38 108 >> 8;
#X obj 120 108 & 255;
#X obj 38 132 & 255;
#X obj 38 181 outlet;
#X obj 120 181 outlet;
#X obj 38 84 t f f;
#X connect 0 0 1 0;
#X connect 1 0 9 0;
#X connect 2 0 8 0;
#X connect 3 0 7 0;
#X connect 4 0 6 0;
#X connect 5 0 2 0;
#X connect 6 0 3 0;
#X connect 9 0 4 0;
#X connect 9 1 5 0;
#X restore 659 328 pd bitsplit;
#N canvas 0 23 311 265 bitsplit 0;
#X obj 38 37 inlet;
#X floatatom 38 61 0 0 0 0 - - -;
#X floatatom 120 157 0 0 0 0 - - -;
#X floatatom 38 157 0 0 0 0 - - -;
#X obj 38 108 >> 8;
#X obj 120 108 & 255;
#X obj 38 132 & 255;
#X obj 38 181 outlet;
#X obj 120 181 outlet;
#X obj 38 84 t f f;
#X connect 0 0 1 0;
#X connect 1 0 9 0;
#X connect 2 0 8 0;
#X connect 3 0 7 0;
#X connect 4 0 6 0;
#X connect 5 0 2 0;
#X connect 6 0 3 0;
#X connect 9 0 4 0;
#X connect 9 1 5 0;
#X restore 749 328 pd bitsplit;
#N canvas 0 23 311 265 bitsplit 0;
#X obj 38 37 inlet;
#X floatatom 38 61 0 0 0 0 - - -;
#X floatatom 120 157 0 0 0 0 - - -;
#X floatatom 38 157 0 0 0 0 - - -;
#X obj 38 108 >> 8;
#X obj 120 108 & 255;
#X obj 38 132 & 255;
#X obj 38 181 outlet;
#X obj 120 181 outlet;
#X obj 38 84 t f f;
#X connect 0 0 1 0;
#X connect 1 0 9 0;
#X connect 2 0 8 0;
#X connect 3 0 7 0;
#X connect 4 0 6 0;
#X connect 5 0 2 0;
#X connect 6 0 3 0;
#X connect 9 0 4 0;
#X connect 9 1 5 0;
#X restore 1139 328 pd bitsplit;
#N canvas 0 23 311 265 bitsplit 0;
#X obj 38 37 inlet;
#X floatatom 38 61 0 0 0 0 - - -;
#X floatatom 120 157 0 0 0 0 - - -;
#X floatatom 38 157 0 0 0 0 - - -;
#X obj 38 108 >> 8;
#X obj 120 108 & 255;
#X obj 38 132 & 255;
#X obj 38 181 outlet;
#X obj 120 181 outlet;
#X obj 38 84 t f f;
#X connect 0 0 1 0;
#X connect 1 0 9 0;
#X connect 2 0 8 0;
#X connect 3 0 7 0;
#X connect 4 0 6 0;
#X connect 5 0 2 0;
#X connect 6 0 3 0;
#X connect 9 0 4 0;
#X connect 9 1 5 0;
#X restore 1229 328 pd bitsplit;
#N canvas 0 23 311 265 bitsplit 0;
#X obj 38 37 inlet;
#X floatatom 38 61 0 0 0 0 - - -;
#X floatatom 120 157 0 0 0 0 - - -;
#X floatatom 38 157 0 0 0 0 - - -;
#X obj 38 108 >> 8;
#X obj 120 108 & 255;
#X obj 38 132 & 255;
#X obj 38 181 outlet;
#X obj 120 181 outlet;
#X obj 38 84 t f f;
#X connect 0 0 1 0;
#X connect 1 0 9 0;
#X connect 2 0 8 0;
#X connect 3 0 7 0;
#X connect 4 0 6 0;
#X connect 5 0 2 0;
#X connect 6 0 3 0;
#X connect 9 0 4 0;
#X connect 9 1 5 0;
#X restore 1319 328 pd bitsplit;
#X obj 839 450 / 255;
#X obj 889 450 / 255;
#X obj 939 450 / 255;
#X obj 989 450 / 255;
#X obj 1039 450 / 255;
#N canvas 168 23 450 475 pitch 0;
#X obj 37 57 inlet;
#X obj 267 57 inlet;
#X obj 37 222 -;
#X obj 37 246 abs;
#X floatatom 37 296 5 0 0 0 - - -;
#X floatatom 37 357 5 0 0 0 - - -;
#X obj 37 380 outlet;
#X floatatom 266 181 0 0 0 3 pitch - -;
#X floatatom 36 181 0 0 0 3 pitch - -;
#X floatatom 276 243 0 0 0 0 - - -;
#X floatatom 276 290 0 0 0 0 - - -;
#X obj 276 266 ftom;
#X obj 29 403 expr if($f1 > 12 \, $f1 \, if($f1 <= 12 && $f1 > 5 \,
2+($f1*0.01) \, if($f1 <= 5 && $f1 > 2 \, 1-($f1*0.001) \, 0)));
#X obj 26 439 expr if($f1 > 3 \, $f1 \, 0);
#X obj 37 319 expr if($f1 > 3 \, $f1 \, 0);
#X obj 117 137 * 0.290196;
#X obj 347 137 * 0.290196;
#X obj 347 161 + 62;
#X obj 117 161 + 62;
#X obj 267 87 / 255;
#X obj 267 111 * 39;
#X obj 267 135 + 96;
#X obj 37 87 / 255;
#X obj 37 111 * 39;
#X obj 37 135 + 96;
#X connect 0 0 22 0;
#X connect 1 0 19 0;
#X connect 2 0 3 0;
#X connect 3 0 4 0;
#X connect 4 0 14 0;
#X connect 5 0 6 0;
#X connect 7 0 2 1;
#X connect 8 0 2 0;
#X connect 9 0 11 0;
#X connect 11 0 10 0;
#X connect 14 0 5 0;
#X connect 15 0 18 0;
#X connect 16 0 17 0;
#X connect 19 0 20 0;
#X connect 20 0 21 0;
#X connect 21 0 7 0;
#X connect 22 0 23 0;
#X connect 23 0 24 0;
#X connect 24 0 8 0;
#X restore 479 401 pd pitch;
#X floatatom 479 425 0 0 0 0 - - -;
#X obj 12 132 t f b b f;
#X msg 16 653 \; mgGA01_fitness_g\$1 normalize 1;
#X obj 889 499 +;
#X obj 989 499 +;
#X obj 193 278 t b b f b;
#X msg 259 302 1;
#X obj 839 499 +;
#X obj 889 523 +;
#N canvas 0 23 488 502 selSub 0;
#X text 268 45 音程の最も近い種と比較する;
#X floatatom 146 59 5 0 0 0 - - -;
#X obj 146 122 tabread mgGA01_sub2B;
#X floatatom 146 146 5 0 0 0 - - -;
#X obj 146 242 array get mgGA01_sub2 0 3;
#X obj 146 169 t f f;
#X obj 342 192 sel 0 15;
#X obj 146 218 clip 0 16;
#X obj 146 193 - 1;
#X obj 146 266 spigot;
#X obj 146 338 unpack 0 0 0;
#X msg 342 216 1;
#X obj 146 290 list split 2;
#X msg 146 314 0 \$1 \$2;
#X obj 236 266 spigot;
#X obj 236 290 list split 2;
#X msg 236 314 \$1 \$2 0;
#X obj 336 266 spigot;
#X msg 342 240 0;
#X msg 372 216 1;
#X msg 372 240 0;
#X msg 402 216 1;
#X msg 402 240 0;
#X obj 146 35 inlet;
#X obj 26 35 inlet;
#X obj 128 364 f;
#X obj 249 364 f;
#X msg 26 59 3;
#X obj 26 83 t f b;
#X obj 26 107 until;
#X obj 26 131 f;
#X obj 56 131 + 1;
#X msg 67 108 0;
#X obj 26 155 sel 0 1 2;
#X obj 146 82 t f f;
#N canvas 926 23 390 396 random 0;
#X obj 80 252 expr if ($f1 >= $f2 \, $f1 + 1 \, $f1);
#X obj 80 276 mod 16;
#X obj 80 69 random 16;
#X obj 77 25 inlet;
#X obj 297 25 inlet;
#X floatatom 80 300 5 0 0 0 - - -;
#X obj 80 323 outlet;
#X obj 157 39 r seed26;
#X connect 0 0 1 0;
#X connect 1 0 5 0;
#X connect 2 0 0 0;
#X connect 3 0 2 0;
#X connect 4 0 0 1;
#X connect 5 0 6 0;
#X connect 7 0 2 0;
#X restore 370 292 pd random;
#N canvas 926 23 390 396 random 0;
#X obj 80 252 expr if ($f1 >= $f2 \, $f1 + 1 \, $f1);
#X obj 80 276 mod 16;
#X obj 80 69 random 16;
#X obj 77 25 inlet;
#X obj 297 25 inlet;
#X floatatom 80 300 5 0 0 0 - - -;
#X obj 80 323 outlet;
#X obj 157 39 r seed27;
#X connect 0 0 1 0;
#X connect 1 0 5 0;
#X connect 2 0 0 0;
#X connect 3 0 2 0;
#X connect 4 0 0 1;
#X connect 5 0 6 0;
#X connect 7 0 2 0;
#X restore 343 318 pd random;
#N canvas 926 23 390 396 random 0;
#X obj 80 252 expr if ($f1 >= $f2 \, $f1 + 1 \, $f1);
#X obj 80 276 mod 16;
#X obj 77 25 inlet;
#X obj 297 25 inlet;
#X floatatom 80 300 5 0 0 0 - - -;
#X obj 80 323 outlet;
#X obj 157 39 r seed25;
#X obj 80 69 random 16;
#X connect 0 0 1 0;
#X connect 1 0 4 0;
#X connect 2 0 7 0;
#X connect 3 0 0 1;
#X connect 4 0 5 0;
#X connect 6 0 7 0;
#X connect 7 0 0 0;
#X restore 47 186 pd random;
#X floatatom 249 388 5 0 0 0 - - -;
#X floatatom 128 388 5 0 0 0 - - -;
#X floatatom 188 388 5 0 0 0 - - -;
#X obj 128 411 outlet;
#X connect 1 0 34 0;
#X connect 2 0 3 0;
#X connect 3 0 5 0;
#X connect 4 0 9 0;
#X connect 4 0 14 0;
#X connect 4 0 17 0;
#X connect 5 0 8 0;
#X connect 5 1 6 0;
#X connect 6 0 11 0;
#X connect 6 0 36 0;
#X connect 6 1 19 0;
#X connect 6 1 35 0;
#X connect 6 2 21 0;
#X connect 7 0 4 0;
#X connect 8 0 7 0;
#X connect 9 0 12 0;
#X connect 10 0 25 1;
#X connect 10 2 26 1;
#X connect 11 0 18 0;
#X connect 11 0 9 1;
#X connect 12 0 13 0;
#X connect 13 0 10 0;
#X connect 14 0 15 0;
#X connect 15 0 16 0;
#X connect 16 0 10 0;
#X connect 17 0 10 0;
#X connect 18 0 14 1;
#X connect 18 0 17 1;
#X connect 19 0 20 0;
#X connect 19 0 14 1;
#X connect 20 0 17 1;
#X connect 20 0 9 1;
#X connect 21 0 22 0;
#X connect 21 0 17 1;
#X connect 22 0 14 1;
#X connect 22 0 9 1;
#X connect 23 0 1 0;
#X connect 24 0 27 0;
#X connect 25 0 39 0;
#X connect 26 0 38 0;
#X connect 27 0 28 0;
#X connect 28 0 29 0;
#X connect 28 1 32 0;
#X connect 29 0 30 0;
#X connect 30 0 31 0;
#X connect 30 0 33 0;
#X connect 31 0 30 1;
#X connect 32 0 30 1;
#X connect 33 0 25 0;
#X connect 33 1 37 0;
#X connect 33 2 26 0;
#X connect 34 0 2 0;
#X connect 34 1 35 1;
#X connect 34 1 36 1;
#X connect 34 1 37 1;
#X connect 35 0 26 1;
#X connect 36 0 25 1;
#X connect 37 0 40 0;
#X connect 38 0 41 0;
#X connect 39 0 41 0;
#X connect 40 0 41 0;
#X restore 221 372 pd selSub;
#X obj 479 638 *;
#X obj 478 559 * 0;
#N canvas 0 23 311 265 bitsplit 0;
#X obj 38 37 inlet;
#X floatatom 38 61 0 0 0 0 - - -;
#X floatatom 120 157 0 0 0 0 - - -;
#X floatatom 38 157 0 0 0 0 - - -;
#X obj 38 108 >> 8;
#X obj 120 108 & 255;
#X obj 38 132 & 255;
#X obj 38 181 outlet;
#X obj 120 181 outlet;
#X obj 38 84 t f f;
#X connect 0 0 1 0;
#X connect 1 0 9 0;
#X connect 2 0 8 0;
#X connect 3 0 7 0;
#X connect 4 0 6 0;
#X connect 5 0 2 0;
#X connect 6 0 3 0;
#X connect 9 0 4 0;
#X connect 9 1 5 0;
#X restore 479 328 pd bitsplit;
#N canvas 0 23 311 265 bitsplit 0;
#X obj 38 37 inlet;
#X floatatom 38 61 0 0 0 0 - - -;
#X floatatom 120 157 0 0 0 0 - - -;
#X floatatom 38 157 0 0 0 0 - - -;
#X obj 38 108 >> 8;
#X obj 120 108 & 255;
#X obj 38 132 & 255;
#X obj 38 181 outlet;
#X obj 120 181 outlet;
#X obj 38 84 t f f;
#X connect 0 0 1 0;
#X connect 1 0 9 0;
#X connect 2 0 8 0;
#X connect 3 0 7 0;
#X connect 4 0 6 0;
#X connect 5 0 2 0;
#X connect 6 0 3 0;
#X connect 9 0 4 0;
#X connect 9 1 5 0;
#X restore 1049 328 pd bitsplit;
#X obj 479 280 array get 0 6;
#X obj 1049 280 array get 0 6;
#X obj 1049 256 * 6;
#X obj 42 287 + 6;
#X obj 12 383 * 6;
#X obj 12 413 array get 0 6;
#X obj 216 539 * 6;
#X obj 479 304 unpack 0 0 0 0 0 0;
#X obj 1049 304 unpack 0 0 0 0 0 0;
#N canvas 0 23 311 265 bitsplit 0;
#X obj 38 37 inlet;
#X floatatom 38 61 0 0 0 0 - - -;
#X floatatom 120 157 0 0 0 0 - - -;
#X floatatom 38 157 0 0 0 0 - - -;
#X obj 38 108 >> 8;
#X obj 120 108 & 255;
#X obj 38 132 & 255;
#X obj 38 181 outlet;
#X obj 120 181 outlet;
#X obj 38 84 t f f;
#X connect 0 0 1 0;
#X connect 1 0 9 0;
#X connect 2 0 8 0;
#X connect 3 0 7 0;
#X connect 4 0 6 0;
#X connect 5 0 2 0;
#X connect 6 0 3 0;
#X connect 9 0 4 0;
#X connect 9 1 5 0;
#X restore 839 328 pd bitsplit;
#N canvas 0 23 311 265 bitsplit 0;
#X obj 38 37 inlet;
#X floatatom 38 61 0 0 0 0 - - -;
#X floatatom 120 157 0 0 0 0 - - -;
#X floatatom 38 157 0 0 0 0 - - -;
#X obj 38 108 >> 8;
#X obj 120 108 & 255;
#X obj 38 132 & 255;
#X obj 38 181 outlet;
#X obj 120 181 outlet;
#X obj 38 84 t f f;
#X connect 0 0 1 0;
#X connect 1 0 9 0;
#X connect 2 0 8 0;
#X connect 3 0 7 0;
#X connect 4 0 6 0;
#X connect 5 0 2 0;
#X connect 6 0 3 0;
#X connect 9 0 4 0;
#X connect 9 1 5 0;
#X restore 929 328 pd bitsplit;
#N canvas 0 23 311 265 bitsplit 0;
#X obj 38 37 inlet;
#X floatatom 38 61 0 0 0 0 - - -;
#X floatatom 120 157 0 0 0 0 - - -;
#X floatatom 38 157 0 0 0 0 - - -;
#X obj 38 108 >> 8;
#X obj 120 108 & 255;
#X obj 38 132 & 255;
#X obj 38 181 outlet;
#X obj 120 181 outlet;
#X obj 38 84 t f f;
#X connect 0 0 1 0;
#X connect 1 0 9 0;
#X connect 2 0 8 0;
#X connect 3 0 7 0;
#X connect 4 0 6 0;
#X connect 5 0 2 0;
#X connect 6 0 3 0;
#X connect 9 0 4 0;
#X connect 9 1 5 0;
#X restore 1409 328 pd bitsplit;
#N canvas 0 23 311 265 bitsplit 0;
#X obj 38 37 inlet;
#X floatatom 38 61 0 0 0 0 - - -;
#X floatatom 120 157 0 0 0 0 - - -;
#X floatatom 38 157 0 0 0 0 - - -;
#X obj 38 108 >> 8;
#X obj 120 108 & 255;
#X obj 38 132 & 255;
#X obj 38 181 outlet;
#X obj 120 181 outlet;
#X obj 38 84 t f f;
#X connect 0 0 1 0;
#X connect 1 0 9 0;
#X connect 2 0 8 0;
#X connect 3 0 7 0;
#X connect 4 0 6 0;
#X connect 5 0 2 0;
#X connect 6 0 3 0;
#X connect 9 0 4 0;
#X connect 9 1 5 0;
#X restore 1499 328 pd bitsplit;
#X obj 1089 402 -;
#X obj 1089 426 abs;
#X obj 1139 402 -;
#X obj 1139 426 abs;
#X obj 1189 402 -;
#X obj 1189 426 abs;
#X obj 1239 402 -;
#X obj 1239 426 abs;
#X floatatom 1089 476 5 0 0 0 - - -;
#X floatatom 1139 476 5 0 0 0 - - -;
#X floatatom 1189 476 5 0 0 0 - - -;
#X floatatom 1239 476 5 0 0 0 - - -;
#X obj 1089 450 / 255;
#X obj 1139 450 / 255;
#X obj 1189 450 / 255;
#X obj 1239 450 / 255;
#X obj 1089 499 +;
#X obj 1189 499 +;
#X obj 1089 523 +;
#X obj 889 547 +;
#X obj 12 463 array set 0 6;
#X obj 739 402 -;
#X obj 739 426 abs;
#X obj 789 402 -;
#X obj 789 426 abs;
#X floatatom 739 476 5 0 0 0 - - -;
#X floatatom 789 476 5 0 0 0 - - -;
#X obj 739 450 / 255;
#X obj 789 450 / 255;
#X obj 739 499 +;
#X obj 739 523 +;
#X obj 461 708 expr if($f1<= 0 \, 0.0001 \, $f1);
#X obj 78 271 r seed24;
#X obj 153 473 r seed28;
#X obj 1137 256 r sel_gene_next;
#X text 479 258 比較対象(gene_now);
#X connect 0 0 69 0;
#X connect 1 0 2 0;
#X connect 2 0 18 0;
#X connect 2 1 4 0;
#X connect 3 0 5 0;
#X connect 4 0 5 1;
#X connect 5 0 53 0;
#X connect 5 0 73 0;
#X connect 6 0 8 0;
#X connect 7 0 86 0;
#X connect 8 0 19 0;
#X connect 8 1 10 0;
#X connect 9 0 11 0;
#X connect 10 0 11 1;
#X connect 11 0 20 0;
#X connect 11 0 85 0;
#X connect 12 0 14 0;
#X connect 12 0 26 0;
#X connect 13 0 15 0;
#X connect 13 0 27 0;
#X connect 16 0 45 0;
#X connect 17 0 7 0;
#X connect 18 0 3 0;
#X connect 19 0 9 0;
#X connect 20 0 17 0;
#X connect 20 1 115 1;
#X connect 22 0 88 0;
#X connect 23 0 24 0;
#X connect 24 0 82 2;
#X connect 25 0 22 0;
#X connect 25 1 23 0;
#X connect 28 0 29 0;
#X connect 29 0 62 0;
#X connect 30 0 31 0;
#X connect 31 0 63 0;
#X connect 32 0 33 0;
#X connect 33 0 64 0;
#X connect 34 0 35 0;
#X connect 35 0 65 0;
#X connect 36 0 37 0;
#X connect 37 0 66 0;
#X connect 38 0 75 0;
#X connect 39 0 71 0;
#X connect 40 0 71 1;
#X connect 41 0 72 0;
#X connect 42 0 72 1;
#X connect 43 0 46 0;
#X connect 44 0 17 2;
#X connect 46 0 78 0;
#X connect 46 1 47 0;
#X connect 47 0 78 1;
#X connect 48 0 87 2;
#X connect 49 0 115 2;
#X connect 50 0 51 0;
#X connect 51 0 126 0;
#X connect 53 0 5 1;
#X connect 54 0 55 0;
#X connect 55 0 52 0;
#X connect 56 0 118 0;
#X connect 56 1 28 0;
#X connect 57 0 30 0;
#X connect 57 1 32 0;
#X connect 58 0 34 0;
#X connect 58 1 36 0;
#X connect 59 0 118 1;
#X connect 59 1 28 1;
#X connect 60 0 30 1;
#X connect 60 1 32 1;
#X connect 61 0 34 1;
#X connect 61 1 36 1;
#X connect 62 0 38 0;
#X connect 63 0 39 0;
#X connect 64 0 40 0;
#X connect 65 0 41 0;
#X connect 66 0 42 0;
#X connect 67 0 68 0;
#X connect 68 0 79 0;
#X connect 69 0 70 0;
#X connect 69 1 6 0;
#X connect 69 2 1 0;
#X connect 69 3 16 0;
#X connect 69 3 13 0;
#X connect 69 3 12 0;
#X connect 69 3 77 1;
#X connect 71 0 76 0;
#X connect 72 0 76 1;
#X connect 73 0 50 0;
#X connect 73 1 77 0;
#X connect 73 2 52 1;
#X connect 73 2 84 0;
#X connect 73 3 74 0;
#X connect 74 0 47 1;
#X connect 75 0 125 1;
#X connect 76 0 114 0;
#X connect 77 0 25 0;
#X connect 78 0 47 1;
#X connect 78 0 50 1;
#X connect 79 0 43 0;
#X connect 80 0 67 0;
#X connect 80 1 116 0;
#X connect 81 0 67 1;
#X connect 81 1 116 1;
#X connect 82 0 89 0;
#X connect 83 0 90 0;
#X connect 84 0 83 0;
#X connect 85 0 11 1;
#X connect 86 0 87 0;
#X connect 87 0 115 0;
#X connect 88 0 82 0;
#X connect 89 0 80 0;
#X connect 89 1 56 0;
#X connect 89 2 57 0;
#X connect 89 3 58 0;
#X connect 89 4 91 0;
#X connect 89 5 92 0;
#X connect 90 0 81 0;
#X connect 90 1 59 0;
#X connect 90 2 60 0;
#X connect 90 3 61 0;
#X connect 90 4 93 0;
#X connect 90 5 94 0;
#X connect 91 0 95 0;
#X connect 91 1 97 0;
#X connect 92 0 99 0;
#X connect 92 1 101 0;
#X connect 93 0 95 1;
#X connect 93 1 97 1;
#X connect 94 0 99 1;
#X connect 94 1 101 1;
#X connect 95 0 96 0;
#X connect 96 0 107 0;
#X connect 97 0 98 0;
#X connect 98 0 108 0;
#X connect 99 0 100 0;
#X connect 100 0 109 0;
#X connect 101 0 102 0;
#X connect 102 0 110 0;
#X connect 103 0 111 0;
#X connect 104 0 111 1;
#X connect 105 0 112 0;
#X connect 106 0 112 1;
#X connect 107 0 103 0;
#X connect 108 0 104 0;
#X connect 109 0 105 0;
#X connect 110 0 106 0;
#X connect 111 0 113 0;
#X connect 112 0 113 1;
#X connect 113 0 114 1;
#X connect 114 0 75 1;
#X connect 116 0 117 0;
#X connect 117 0 122 0;
#X connect 118 0 119 0;
#X connect 119 0 123 0;
#X connect 120 0 124 0;
#X connect 121 0 124 1;
#X connect 122 0 120 0;
#X connect 123 0 121 0;
#X connect 124 0 125 0;
#X connect 125 0 79 1;
#X connect 126 0 52 0;
#X connect 127 0 17 0;
#X connect 128 0 22 0;
#X connect 129 0 83 2;
#X restore 224 321 pd selection;
#X obj 224 180 tgl 15 0 empty empty empty 17 7 0 10 -262144 -1 -1 1
1;
#N canvas 428 53 774 569 copy 0;
#X obj 24 31 inlet;
#X obj 23 390 bng 15 250 50 0 empty empty empty 17 7 0 10 -262144 -1
-1;
#X text 207 65 1_現世代を次世代にコピー;
#X obj 24 313 t b f;
#X msg 125 320 symbol mgGA01_gene_now_g\$1;
#X obj 23 410 array get;
#X obj 23 434 array set;
#X msg 125 370 symbol mgGA01_gene_next_g\$1;
#X msg 426 329 symbol mgGA01_gene_now_g\$1;
#X obj 349 538 tabwrite mgGA01_sub1;
#N canvas 1084 23 571 739 bubble 0;
#X floatatom 47 283 5 0 8 0 - - -;
#X obj 47 380 unpack 0 0;
#X obj 47 405 >=;
#X text 42 26 (bubble_sort_argorithm);
#X obj 47 430 sel 0 1;
#X obj 47 456 list;
#X obj 97 456 list;
#X msg 97 481 \$2 \$1;
#X msg 47 481 \$1 \$2;
#X obj 47 356 t l l l;
#X obj 47 134 until;
#X obj 47 159 f;
#X obj 79 159 + 1;
#X msg 94 134 0;
#X obj 47 234 until;
#X obj 47 259 f;
#X obj 47 209 t f b;
#X obj 79 259 - 1;
#X text 131 234 arraymax-1;
#X text 90 82 array_size-1;
#X text 139 187 9~1;
#X text 97 282 8~0(0~[arraymax-1]);
#X obj 47 331 array get mgGA01_sub1 0 2;
#X obj 47 505 array set mgGA01_sub1;
#X obj 247 456 list;
#X obj 297 456 list;
#X msg 297 481 \$2 \$1;
#X msg 247 481 \$1 \$2;
#X obj 247 331 array get mgGA01_sub2 0 2;
#X obj 247 356 t l l;
#X obj 47 305 t f f f;
#X obj 247 505 array set mgGA01_sub2;
#X obj 23 568 t f b;
#X obj 23 592 until;
#X obj 23 616 f;
#X obj 53 617 + 1;
#X msg 68 593 0;
#X obj 23 640 t f f;
#X obj 56 664 tabread mgGA01_sub2;
#X obj 23 688 tabwrite mgGA01_sub2B;
#X obj 24 109 t b f b;
#X obj 24 56 inlet;
#X msg 134 113 \; mgGA01_sub2 0 0 \, 1 1 \, 2 2 \, 3 3 \, 4 4 \, 5
5 \, 6 6 \, 7 7 \, 8 8 \, 9 9 \, 10 10 \, 11 11 \, 12 12 \, 13 13 \,
14 14 \, 15 15;
#X msg 23 544 16;
#X msg 24 84 15;
#X msg 95 234 14;
#X obj 47 184 expr 15-$f1;
#X floatatom 226 649 5 0 0 0 - - -;
#X floatatom 224 601 5 0 0 0 - - -;
#X obj 226 625 tabread mgGA01_sub2;
#X connect 0 0 30 0;
#X connect 1 0 2 0;
#X connect 1 1 2 1;
#X connect 2 0 4 0;
#X connect 4 0 5 0;
#X connect 4 0 24 0;
#X connect 4 1 6 0;
#X connect 4 1 25 0;
#X connect 5 0 8 0;
#X connect 6 0 7 0;
#X connect 7 0 23 0;
#X connect 8 0 23 0;
#X connect 9 0 1 0;
#X connect 9 1 5 1;
#X connect 9 2 6 1;
#X connect 10 0 11 0;
#X connect 11 0 12 0;
#X connect 11 0 46 0;
#X connect 12 0 11 1;
#X connect 13 0 11 1;
#X connect 14 0 15 0;
#X connect 15 0 17 0;
#X connect 15 0 0 0;
#X connect 16 0 14 0;
#X connect 16 1 45 0;
#X connect 17 0 15 1;
#X connect 22 0 9 0;
#X connect 24 0 27 0;
#X connect 25 0 26 0;
#X connect 26 0 31 0;
#X connect 27 0 31 0;
#X connect 28 0 29 0;
#X connect 29 0 24 1;
#X connect 29 1 25 1;
#X connect 30 0 22 0;
#X connect 30 1 28 0;
#X connect 30 2 31 1;
#X connect 30 2 23 1;
#X connect 32 0 33 0;
#X connect 32 1 36 0;
#X connect 33 0 34 0;
#X connect 34 0 35 0;
#X connect 34 0 37 0;
#X connect 35 0 34 1;
#X connect 36 0 34 1;
#X connect 37 0 39 0;
#X connect 37 1 38 0;
#X connect 38 0 39 1;
#X connect 40 0 43 0;
#X connect 40 1 42 0;
#X connect 40 1 10 0;
#X connect 40 2 13 0;
#X connect 41 0 44 0;
#X connect 43 0 32 0;
#X connect 44 0 40 0;
#X connect 45 0 15 1;
#X connect 46 0 16 0;
#X connect 48 0 49 0;
#X connect 49 0 47 0;
#X restore 263 503 pd bubble;
#X obj 349 312 t b f;
#X obj 349 376 array get 0 1;
#X obj 499 376 array get 1 1;
#X obj 499 538 tabwrite mgGA01_sub2;
#X floatatom 348 497 0 0 0 3 pitch - -;
#N canvas 0 23 311 265 bitsplit 0;
#X obj 38 37 inlet;
#X floatatom 38 61 0 0 0 0 - - -;
#X floatatom 120 157 0 0 0 0 - - -;
#X floatatom 38 157 0 0 0 0 - - -;
#X obj 38 108 >> 8;
#X obj 120 108 & 255;
#X obj 38 132 & 255;
#X obj 38 181 outlet;
#X obj 120 181 outlet;
#X obj 38 84 t f f;
#X connect 0 0 1 0;
#X connect 1 0 9 0;
#X connect 2 0 8 0;
#X connect 3 0 7 0;
#X connect 4 0 6 0;
#X connect 5 0 2 0;
#X connect 6 0 3 0;
#X connect 9 0 4 0;
#X connect 9 1 5 0;
#X restore 349 399 pd bitsplit;
#N canvas 0 23 311 265 bitsplit 0;
#X obj 38 37 inlet;
#X floatatom 38 61 0 0 0 0 - - -;
#X floatatom 120 157 0 0 0 0 - - -;
#X floatatom 38 157 0 0 0 0 - - -;
#X obj 38 108 >> 8;
#X obj 120 108 & 255;
#X obj 38 132 & 255;
#X obj 38 181 outlet;
#X obj 120 181 outlet;
#X obj 38 84 t f f;
#X connect 0 0 1 0;
#X connect 1 0 9 0;
#X connect 2 0 8 0;
#X connect 3 0 7 0;
#X connect 4 0 6 0;
#X connect 5 0 2 0;
#X connect 6 0 3 0;
#X connect 9 0 4 0;
#X connect 9 1 5 0;
#X restore 499 400 pd bitsplit;
#X floatatom 499 498 0 0 0 3 cycLength - -;
#X floatatom 573 472 0 0 0 3 cycFreq - -;
#X obj 573 424 / 0.0255;
#X obj 573 448 + 1000;
#X obj 499 424 * 0.054902;
#X obj 24 227 t b f f;
#X obj 349 423 / 255;
#X obj 349 449 * 39;
#X obj 349 473 + 96;
#X obj 414 247 r pitchset*;
#X obj 509 247 r pitchset+;
#X floatatom 509 271 5 0 0 0 - - -;
#X floatatom 414 271 5 0 0 0 - - -;
#X connect 0 0 23 0;
#X connect 1 0 5 0;
#X connect 3 0 1 0;
#X connect 3 1 4 0;
#X connect 3 1 7 0;
#X connect 4 0 5 2;
#X connect 5 0 6 0;
#X connect 7 0 6 2;
#X connect 8 0 12 2;
#X connect 11 0 12 0;
#X connect 11 1 8 0;
#X connect 11 1 9 1;
#X connect 12 0 16 0;
#X connect 13 0 17 0;
#X connect 15 0 9 0;
#X connect 16 0 24 0;
#X connect 17 0 22 0;
#X connect 17 1 20 0;
#X connect 18 0 14 0;
#X connect 20 0 21 0;
#X connect 21 0 19 0;
#X connect 23 0 10 0;
#X connect 23 1 3 0;
#X connect 23 2 11 0;
#X connect 24 0 25 0;
#X connect 25 0 26 0;
#X connect 26 0 15 0;
#X connect 27 0 30 0;
#X connect 28 0 29 0;
#X connect 29 0 26 1;
#X connect 30 0 25 1;
#X restore 478 321 pd copy;
#X obj 43 99 tgl 15 0 empty empty empty 17 7 0 10 -262144 -1 -1 1 1
;
#N canvas 150 110 837 425 synth 0;
#X obj 704 330 inlet;
#X obj 731 189 line~;
#X obj 526 246 *~;
#X obj 704 354 s mgGA_synth;
#X obj 596 246 *~;
#X obj 760 321 tgl 15 0 empty empty empty 17 7 0 10 -262144 -1 -1 0
1;
#X obj 526 273 hip~ 5;
#X obj 596 273 hip~ 5;
#X obj 536 303 s~ out1;
#X obj 606 303 s~ out2;
#X obj 732 114 r masterGain;
#X obj 732 165 pack 0 10;
#X obj 732 22 r masterMute;
#X obj 732 46 sel 0 1;
#X obj 732 138 f;
#X msg 792 70 0 10;
#X msg 732 70 0.1 100;
#X obj 526 345 dac~ 1 2;
#X obj 542 116 rev3~ 100 80 1000 20;
#X obj 406 26 gene_voice 64;
#X obj 406 50 gene_voice 65;
#X obj 406 73 gene_voice 66;
#X obj 406 97 gene_voice 67;
#X obj 406 121 gene_voice 68;
#X obj 406 145 gene_voice 69;
#X obj 406 169 gene_voice 70;
#X obj 406 193 gene_voice 71;
#X obj 406 217 gene_voice 72;
#X obj 406 241 gene_voice 73;
#X obj 406 265 gene_voice 74;
#X obj 406 289 gene_voice 75;
#X obj 406 313 gene_voice 76;
#X obj 406 337 gene_voice 77;
#X obj 406 361 gene_voice 78;
#X obj 406 385 gene_voice 79;
#X obj 306 25 gene_voice 48;
#X obj 306 49 gene_voice 49;
#X obj 306 73 gene_voice 50;
#X obj 306 97 gene_voice 51;
#X obj 306 121 gene_voice 52;
#X obj 306 145 gene_voice 53;
#X obj 306 169 gene_voice 54;
#X obj 306 193 gene_voice 55;
#X obj 306 217 gene_voice 56;
#X obj 306 241 gene_voice 57;
#X obj 306 265 gene_voice 58;
#X obj 306 290 gene_voice 59;
#X obj 306 313 gene_voice 60;
#X obj 306 337 gene_voice 61;
#X obj 306 361 gene_voice 62;
#X obj 306 385 gene_voice 63;
#X obj 206 25 gene_voice 32;
#X obj 206 49 gene_voice 33;
#X obj 207 73 gene_voice 34;
#X obj 206 97 gene_voice 35;
#X obj 206 121 gene_voice 36;
#X obj 206 145 gene_voice 37;
#X obj 206 169 gene_voice 38;
#X obj 206 193 gene_voice 39;
#X obj 206 217 gene_voice 40;
#X obj 206 241 gene_voice 41;
#X obj 206 265 gene_voice 42;
#X obj 206 289 gene_voice 43;
#X obj 206 313 gene_voice 44;
#X obj 206 337 gene_voice 45;
#X obj 206 361 gene_voice 46;
#X obj 206 385 gene_voice 47;
#X obj 519 43 catch~ mainL;
#X obj 618 44 catch~ mainR;
#X obj 542 85 catch~ revL;
#X obj 642 86 catch~ revR;
#X obj 106 25 gene_voice 16;
#X obj 106 49 gene_voice 17;
#X obj 106 73 gene_voice 18;
#X obj 106 97 gene_voice 19;
#X obj 106 121 gene_voice 20;
#X obj 106 145 gene_voice 21;
#X obj 106 169 gene_voice 22;
#X obj 106 193 gene_voice 23;
#X obj 106 217 gene_voice 24;
#X obj 106 241 gene_voice 25;
#X obj 106 265 gene_voice 26;
#X obj 106 289 gene_voice 27;
#X obj 106 313 gene_voice 28;
#X obj 106 337 gene_voice 29;
#X obj 106 361 gene_voice 30;
#X obj 106 385 gene_voice 31;
#X obj 6 25 gene_voice 0;
#X obj 6 49 gene_voice 1;
#X obj 6 73 gene_voice 2;
#X obj 6 97 gene_voice 3;
#X obj 6 121 gene_voice 4;
#X obj 6 145 gene_voice 5;
#X obj 6 169 gene_voice 6;
#X obj 6 193 gene_voice 7;
#X obj 6 217 gene_voice 8;
#X obj 6 241 gene_voice 9;
#X obj 6 265 gene_voice 10;
#X obj 6 289 gene_voice 11;
#X obj 6 313 gene_voice 12;
#X obj 6 337 gene_voice 13;
#X obj 6 361 gene_voice 14;
#X obj 6 385 gene_voice 15;
#X connect 0 0 3 0;
#X connect 1 0 2 1;
#X connect 1 0 4 1;
#X connect 2 0 6 0;
#X connect 4 0 7 0;
#X connect 5 0 3 0;
#X connect 6 0 8 0;
#X connect 6 0 17 0;
#X connect 7 0 9 0;
#X connect 7 0 17 1;
#X connect 10 0 14 0;
#X connect 11 0 1 0;
#X connect 12 0 13 0;
#X connect 13 0 16 0;
#X connect 13 0 14 0;
#X connect 13 1 15 0;
#X connect 14 0 11 0;
#X connect 15 0 1 0;
#X connect 18 0 2 0;
#X connect 18 1 4 0;
#X connect 67 0 2 0;
#X connect 68 0 4 0;
#X connect 69 0 18 0;
#X connect 70 0 18 1;
#X restore 43 119 pd synth;
#X obj 224 200 metro;
#X floatatom 256 176 0 0 0 0 - - -;
#N canvas 490 23 927 731 cross&mutation 0;
#X obj 37 37 inlet;
#X msg 38 215 10;
#X obj 38 239 until;
#X obj 308 377 expr if($f1==$f2 \, $f1+1 \, $f1);
#X text 357 400 <-^-自家受粉を避ける仕組み;
#X obj 308 353 random 20;
#X obj 518 353 random 20;
#X obj 308 401 mod 20;
#X obj 719 377 + 1;
#X floatatom 719 401 5 0 0 0 - - -;
#X text 627 472 どのポイントでgeneを分割するか;
#X obj 38 171 bng 15 250 50 0 empty empty empty 17 7 0 10 -262144 -1
-1;
#X obj 38 191 t b b;
#X obj 38 263 f;
#X floatatom 810 353 5 0 0 0 - - -;
#X floatatom 810 400 5 0 0 0 - - -;
#X obj 37 85 t b f;
#X msg 138 102 symbol mgGA01_gene_now_g\$1;
#X msg 138 182 symbol mgGA01_gene_next_g\$1;
#X obj 58 410 t b b;
#X obj 432 82 inlet;
#X floatatom 432 106 5 0 0 0 - - -;
#X obj 208 437 bng 15 250 50 0 empty empty empty 17 7 0 10 -262144
-1 -1;
#X floatatom 608 377 5 0 0 0 - - -;
#X text 598 320 何個目のgeneから \; 交叉させるか \;;
#X obj 139 127 s c&m_gene_now;
#X obj 139 205 s c&m_gene_next;
#X obj 550 439 r c&m_gene_now;
#X obj 340 439 r c&m_gene_now;
#N canvas 0 23 905 388 cross_box0 0;
#X floatatom 427 87 0 0 0 0 - - -;
#X floatatom 469 238 5 0 0 0 - - -;
#X obj 427 190 t f f;
#X obj 427 214 -;
#X floatatom 427 238 5 0 0 0 - - -;
#X obj 469 214 >>;
#X floatatom 217 87 0 0 0 0 - - -;
#X floatatom 259 238 5 0 0 0 - - -;
#X obj 217 190 t f f;
#X obj 217 214 -;
#X floatatom 217 238 5 0 0 0 - - -;
#X obj 259 214 >>;
#X obj 217 261 +;
#X obj 409 261 +;
#X floatatom 409 285 0 0 0 0 - - -;
#X floatatom 217 285 0 0 0 0 - - -;
#X obj 217 11 inlet;
#X obj 427 11 inlet;
#X floatatom 753 175 5 0 0 0 - - -;
#X obj 217 332 outlet;
#X obj 409 332 outlet;
#X obj 217 165 spigot;
#X obj 427 165 spigot;
#X obj 287 165 spigot;
#X obj 497 165 spigot;
#X floatatom 633 35 5 0 0 0 - - -;
#X obj 753 151 r crosspointA;
#X obj 633 11 r crosspointB;
#X obj 357 165 spigot;
#X obj 567 165 spigot;
#X obj 633 60 expr if($f1 == $f2 \, 1 \, 0) \; if($f1 < $f2 \, 1 \,
0) \; if($f1 > $f2 \, 1 \, 0);
#X obj 807 7 loadbang;
#X msg 807 31 0;
#X obj 22 69 random 2;
#X obj 22 93 sel 0 1;
#N canvas -4 114 485 479 binary_mutation 0;
#X floatatom 61 139 5 0 0 0 - - -;
#X floatatom 62 209 3 0 0 0 - - -;
#X floatatom 114 281 0 0 0 0 oB - -;
#X floatatom 238 140 5 0 0 0 o - -;
#X obj 62 186 >> 3;
#X obj 114 256 & 1;
#X obj 62 232 t f f;
#X obj 62 276 -;
#X floatatom 62 300 0 0 0 0 - - -;
#X obj 61 162 t f f;
#X floatatom 62 348 0 0 0 0 - - -;
#X obj 62 324 |;
#X floatatom 114 329 0 0 0 0 - - -;
#X floatatom 238 211 0 0 0 0 - - -;
#X obj 220 236 &;
#X floatatom 220 260 0 0 0 0 - - -;
#X obj 61 374 <<;
#X obj 61 398 |;
#X floatatom 61 422 5 0 0 0 - - -;
#X obj 114 305 == 0;
#X obj 61 12 inlet;
#X obj 61 36 f;
#X obj 61 60 t f b;
#X obj 238 112 + 1;
#X obj 171 12 inlet;
#X floatatom 171 36 5 0 0 0 - - -;
#X obj 61 445 outlet;
#X obj 238 164 expr (65535 >> $f1) << $f1;
#X obj 238 187 expr $f1 ^ 65535;
#X obj 238 88 random 15;
#X obj 252 54 r seed7;
#X connect 0 0 9 0;
#X connect 1 0 6 0;
#X connect 2 0 19 0;
#X connect 3 0 4 1;
#X connect 3 0 16 1;
#X connect 3 0 27 0;
#X connect 4 0 1 0;
#X connect 5 0 2 0;
#X connect 5 0 7 1;
#X connect 6 0 7 0;
#X connect 6 1 5 0;
#X connect 7 0 8 0;
#X connect 8 0 11 0;
#X connect 9 0 4 0;
#X connect 9 1 14 0;
#X connect 10 0 16 0;
#X connect 11 0 10 0;
#X connect 12 0 11 1;
#X connect 13 0 14 1;
#X connect 14 0 15 0;
#X connect 15 0 17 1;
#X connect 16 0 17 0;
#X connect 17 0 18 0;
#X connect 18 0 26 0;
#X connect 19 0 12 0;
#X connect 20 0 21 0;
#X connect 21 0 22 0;
#X connect 22 0 0 0;
#X connect 22 1 29 0;
#X connect 23 0 3 0;
#X connect 24 0 25 0;
#X connect 25 0 21 1;
#X connect 27 0 28 0;
#X connect 28 0 13 0;
#X connect 29 0 23 0;
#X connect 30 0 29 0;
#X restore 22 118 pd binary_mutation;
#N canvas 518 23 485 479 binary_mutation 0;
#X floatatom 61 139 5 0 0 0 - - -;
#X floatatom 62 209 3 0 0 0 - - -;
#X floatatom 114 281 0 0 0 0 oB - -;
#X floatatom 238 140 5 0 0 0 o - -;
#X obj 62 186 >> 3;
#X obj 114 256 & 1;
#X obj 62 232 t f f;
#X obj 62 276 -;
#X floatatom 62 300 0 0 0 0 - - -;
#X obj 61 162 t f f;
#X floatatom 62 348 0 0 0 0 - - -;
#X obj 62 324 |;
#X floatatom 114 329 0 0 0 0 - - -;
#X floatatom 238 211 0 0 0 0 - - -;
#X obj 220 236 &;
#X floatatom 220 260 0 0 0 0 - - -;
#X obj 61 374 <<;
#X obj 61 398 |;
#X floatatom 61 422 5 0 0 0 - - -;
#X obj 114 305 == 0;
#X obj 61 12 inlet;
#X obj 61 36 f;
#X obj 61 60 t f b;
#X obj 238 112 + 1;
#X obj 171 12 inlet;
#X floatatom 171 36 5 0 0 0 - - -;
#X obj 61 445 outlet;
#X obj 238 163 expr (65535 >> $f1) << $f1;
#X obj 238 187 expr $f1 ^ 65535;
#X obj 238 88 random 15;
#X obj 249 49 r seed11;
#X connect 0 0 9 0;
#X connect 1 0 6 0;
#X connect 2 0 19 0;
#X connect 3 0 4 1;
#X connect 3 0 16 1;
#X connect 3 0 27 0;
#X connect 4 0 1 0;
#X connect 5 0 2 0;
#X connect 5 0 7 1;
#X connect 6 0 7 0;
#X connect 6 1 5 0;
#X connect 7 0 8 0;
#X connect 8 0 11 0;
#X connect 9 0 4 0;
#X connect 9 1 14 0;
#X connect 10 0 16 0;
#X connect 11 0 10 0;
#X connect 12 0 11 1;
#X connect 13 0 14 1;
#X connect 14 0 15 0;
#X connect 15 0 17 1;
#X connect 16 0 17 0;
#X connect 17 0 18 0;
#X connect 18 0 26 0;
#X connect 19 0 12 0;
#X connect 20 0 21 0;
#X connect 21 0 22 0;
#X connect 22 0 0 0;
#X connect 22 1 29 0;
#X connect 23 0 3 0;
#X connect 24 0 25 0;
#X connect 25 0 21 1;
#X connect 27 0 28 0;
#X connect 28 0 13 0;
#X connect 29 0 23 0;
#X connect 30 0 29 0;
#X restore 65 143 pd binary_mutation;
#X obj 22 19 r mutation_num;
#X obj 22 43 sel 0;
#X text 64 43 <-----;
#X text 835 31 <-----;
#X obj 635 166 tgl 15 0 empty empty empty 17 7 0 10 -262144 -1 -1 0
1;
#X obj 655 166 tgl 15 0 empty empty empty 17 7 0 10 -262144 -1 -1 0
1;
#X obj 675 166 tgl 15 0 empty empty empty 17 7 0 10 -262144 -1 -1 1
1;
#X obj 94 71 bng 15 250 50 0 empty empty empty 17 7 0 10 -262144 -1
-1;
#X obj 560 80 == 0;
#X obj 560 56 == 0;
#X obj 217 308 clip 271 65535;
#X obj 409 308 clip 271 65535;
#X text 531 345 271 = 255 + 15 + 1;
#X obj 135 20 r seed6;
#X connect 0 0 22 0;
#X connect 0 0 24 0;
#X connect 0 0 29 0;
#X connect 1 0 12 1;
#X connect 2 0 3 0;
#X connect 2 1 5 0;
#X connect 3 0 4 0;
#X connect 4 0 13 1;
#X connect 5 0 1 0;
#X connect 5 0 3 1;
#X connect 6 0 21 0;
#X connect 6 0 23 0;
#X connect 6 0 28 0;
#X connect 7 0 13 0;
#X connect 8 0 9 0;
#X connect 8 1 11 0;
#X connect 9 0 10 0;
#X connect 10 0 12 0;
#X connect 11 0 7 0;
#X connect 11 0 9 1;
#X connect 12 0 15 0;
#X connect 12 0 35 1;
#X connect 13 0 14 0;
#X connect 13 0 36 1;
#X connect 14 0 48 0;
#X connect 15 0 47 0;
#X connect 16 0 6 0;
#X connect 17 0 0 0;
#X connect 18 0 5 1;
#X connect 18 0 11 1;
#X connect 21 0 8 0;
#X connect 22 0 2 0;
#X connect 23 0 47 0;
#X connect 24 0 48 0;
#X connect 25 0 30 0;
#X connect 26 0 18 0;
#X connect 27 0 25 0;
#X connect 28 0 48 0;
#X connect 29 0 47 0;
#X connect 30 0 22 1;
#X connect 30 0 21 1;
#X connect 30 0 41 0;
#X connect 30 1 24 1;
#X connect 30 1 23 1;
#X connect 30 1 42 0;
#X connect 30 2 29 1;
#X connect 30 2 28 1;
#X connect 30 2 43 0;
#X connect 31 0 32 0;
#X connect 32 0 30 1;
#X connect 33 0 34 0;
#X connect 34 0 35 0;
#X connect 34 1 36 0;
#X connect 35 0 15 0;
#X connect 36 0 14 0;
#X connect 37 0 38 0;
#X connect 38 0 33 0;
#X connect 38 0 44 0;
#X connect 45 0 24 1;
#X connect 45 0 23 1;
#X connect 46 0 45 0;
#X connect 46 0 22 1;
#X connect 46 0 21 1;
#X connect 47 0 19 0;
#X connect 48 0 20 0;
#X connect 50 0 33 0;
#X restore 308 553 pd cross_box0;
#X obj 608 400 s crosspointB;
#X obj 719 424 s crosspointA;
#X obj 290 594 f;
#X obj 518 594 f;
#X obj 58 507 s mutation_num;
#N canvas 0 23 905 388 cross_box1 0;
#X floatatom 427 87 0 0 0 0 - - -;
#X floatatom 469 238 5 0 0 0 - - -;
#X obj 427 190 t f f;
#X obj 427 214 -;
#X floatatom 427 238 5 0 0 0 - - -;
#X obj 469 214 >>;
#X floatatom 217 87 0 0 0 0 - - -;
#X floatatom 259 238 5 0 0 0 - - -;
#X obj 217 190 t f f;
#X obj 217 214 -;
#X floatatom 217 238 5 0 0 0 - - -;
#X obj 259 214 >>;
#X obj 217 261 +;
#X obj 409 261 +;
#X floatatom 409 285 0 0 0 0 - - -;
#X floatatom 217 285 0 0 0 0 - - -;
#X obj 217 11 inlet;
#X obj 427 11 inlet;
#X floatatom 753 175 5 0 0 0 - - -;
#X obj 217 332 outlet;
#X obj 409 332 outlet;
#X obj 217 165 spigot;
#X obj 427 165 spigot;
#X obj 287 165 spigot;
#X obj 497 165 spigot;
#X floatatom 633 35 5 0 0 0 - - -;
#X obj 753 151 r crosspointA;
#X obj 633 11 r crosspointB;
#X obj 357 165 spigot;
#X obj 567 165 spigot;
#X obj 633 60 expr if($f1 == $f2 \, 1 \, 0) \; if($f1 < $f2 \, 1 \,
0) \; if($f1 > $f2 \, 1 \, 0);
#X obj 807 7 loadbang;
#X obj 22 69 random 2;
#X obj 22 93 sel 0 1;
#N canvas 0 23 485 479 binary_mutation 0;
#X floatatom 61 139 5 0 0 0 - - -;
#X floatatom 62 209 3 0 0 0 - - -;
#X floatatom 114 281 0 0 0 0 oB - -;
#X floatatom 238 140 5 0 0 0 o - -;
#X obj 62 186 >> 3;
#X obj 114 256 & 1;
#X obj 62 232 t f f;
#X obj 62 276 -;
#X floatatom 62 300 0 0 0 0 - - -;
#X obj 61 162 t f f;
#X floatatom 62 348 0 0 0 0 - - -;
#X obj 62 324 |;
#X floatatom 114 329 0 0 0 0 - - -;
#X floatatom 238 211 0 0 0 0 - - -;
#X obj 220 236 &;
#X floatatom 220 260 0 0 0 0 - - -;
#X obj 61 374 <<;
#X obj 61 398 |;
#X floatatom 61 422 5 0 0 0 - - -;
#X obj 114 305 == 0;
#X obj 61 12 inlet;
#X obj 61 36 f;
#X obj 61 60 t f b;
#X obj 238 112 + 1;
#X obj 171 12 inlet;
#X floatatom 171 36 5 0 0 0 - - -;
#X obj 61 445 outlet;
#X obj 238 88 random 15;
#X obj 238 163 expr (65535 >> $f1) << $f1;
#X obj 238 187 expr $f1 ^ 65535;
#X obj 249 49 r seed9;
#X connect 0 0 9 0;
#X connect 1 0 6 0;
#X connect 2 0 19 0;
#X connect 3 0 4 1;
#X connect 3 0 16 1;
#X connect 3 0 28 0;
#X connect 4 0 1 0;
#X connect 5 0 2 0;
#X connect 5 0 7 1;
#X connect 6 0 7 0;
#X connect 6 1 5 0;
#X connect 7 0 8 0;
#X connect 8 0 11 0;
#X connect 9 0 4 0;
#X connect 9 1 14 0;
#X connect 10 0 16 0;
#X connect 11 0 10 0;
#X connect 12 0 11 1;
#X connect 13 0 14 1;
#X connect 14 0 15 0;
#X connect 15 0 17 1;
#X connect 16 0 17 0;
#X connect 17 0 18 0;
#X connect 18 0 26 0;
#X connect 19 0 12 0;
#X connect 20 0 21 0;
#X connect 21 0 22 0;
#X connect 22 0 0 0;
#X connect 22 1 27 0;
#X connect 23 0 3 0;
#X connect 24 0 25 0;
#X connect 25 0 21 1;
#X connect 27 0 23 0;
#X connect 28 0 29 0;
#X connect 29 0 13 0;
#X connect 30 0 27 0;
#X restore 22 118 pd binary_mutation;
#N canvas 518 23 485 479 binary_mutation 0;
#X floatatom 61 139 5 0 0 0 - - -;
#X floatatom 62 209 3 0 0 0 - - -;
#X floatatom 114 281 0 0 0 0 oB - -;
#X floatatom 238 140 5 0 0 0 o - -;
#X obj 62 186 >> 3;
#X obj 114 256 & 1;
#X obj 62 232 t f f;
#X obj 62 276 -;
#X floatatom 62 300 0 0 0 0 - - -;
#X obj 61 162 t f f;
#X floatatom 62 348 0 0 0 0 - - -;
#X obj 62 324 |;
#X floatatom 114 329 0 0 0 0 - - -;
#X floatatom 238 211 0 0 0 0 - - -;
#X obj 220 236 &;
#X floatatom 220 260 0 0 0 0 - - -;
#X obj 61 374 <<;
#X obj 61 398 |;
#X floatatom 61 422 5 0 0 0 - - -;
#X obj 114 305 == 0;
#X obj 61 12 inlet;
#X obj 61 36 f;
#X obj 61 60 t f b;
#X obj 238 112 + 1;
#X obj 171 12 inlet;
#X floatatom 171 36 5 0 0 0 - - -;
#X obj 61 445 outlet;
#X obj 238 88 random 15;
#X obj 238 163 expr (65535 >> $f1) << $f1;
#X obj 238 187 expr $f1 ^ 65535;
#X obj 249 49 r seed10;
#X connect 0 0 9 0;
#X connect 1 0 6 0;
#X connect 2 0 19 0;
#X connect 3 0 4 1;
#X connect 3 0 16 1;
#X connect 3 0 28 0;
#X connect 4 0 1 0;
#X connect 5 0 2 0;
#X connect 5 0 7 1;
#X connect 6 0 7 0;
#X connect 6 1 5 0;
#X connect 7 0 8 0;
#X connect 8 0 11 0;
#X connect 9 0 4 0;
#X connect 9 1 14 0;
#X connect 10 0 16 0;
#X connect 11 0 10 0;
#X connect 12 0 11 1;
#X connect 13 0 14 1;
#X connect 14 0 15 0;
#X connect 15 0 17 1;
#X connect 16 0 17 0;
#X connect 17 0 18 0;
#X connect 18 0 26 0;
#X connect 19 0 12 0;
#X connect 20 0 21 0;
#X connect 21 0 22 0;
#X connect 22 0 0 0;
#X connect 22 1 27 0;
#X connect 23 0 3 0;
#X connect 24 0 25 0;
#X connect 25 0 21 1;
#X connect 27 0 23 0;
#X connect 28 0 29 0;
#X connect 29 0 13 0;
#X connect 30 0 27 0;
#X restore 65 143 pd binary_mutation;
#X obj 22 19 r mutation_num;
#X text 64 43 <-----;
#X text 835 31 <-----;
#X obj 22 43 sel 1;
#X msg 807 31 1;
#X obj 635 166 tgl 15 0 empty empty empty 17 7 0 10 -262144 -1 -1 0
1;
#X obj 655 166 tgl 15 0 empty empty empty 17 7 0 10 -262144 -1 -1 0
1;
#X obj 675 166 tgl 15 0 empty empty empty 17 7 0 10 -262144 -1 -1 1
1;
#X obj 560 80 == 0;
#X obj 560 56 == 1;
#X obj 217 308 clip 256 65535;
#X obj 409 308 clip 256 65535;
#X obj 93 74 bng 15 250 50 0 empty empty empty 17 7 0 10 -262144 -1
-1;
#X obj 135 47 r seed8;
#X connect 0 0 22 0;
#X connect 0 0 24 0;
#X connect 0 0 29 0;
#X connect 1 0 12 1;
#X connect 2 0 3 0;
#X connect 2 1 5 0;
#X connect 3 0 4 0;
#X connect 4 0 13 1;
#X connect 5 0 1 0;
#X connect 5 0 3 1;
#X connect 6 0 21 0;
#X connect 6 0 23 0;
#X connect 6 0 28 0;
#X connect 7 0 13 0;
#X connect 8 0 9 0;
#X connect 8 1 11 0;
#X connect 9 0 10 0;
#X connect 10 0 12 0;
#X connect 11 0 7 0;
#X connect 11 0 9 1;
#X connect 12 0 15 0;
#X connect 12 0 34 1;
#X connect 13 0 14 0;
#X connect 13 0 35 1;
#X connect 14 0 47 0;
#X connect 15 0 46 0;
#X connect 16 0 6 0;
#X connect 17 0 0 0;
#X connect 18 0 5 1;
#X connect 18 0 11 1;
#X connect 21 0 8 0;
#X connect 22 0 2 0;
#X connect 23 0 46 0;
#X connect 24 0 47 0;
#X connect 25 0 30 0;
#X connect 26 0 18 0;
#X connect 27 0 25 0;
#X connect 28 0 47 0;
#X connect 29 0 46 0;
#X connect 30 0 22 1;
#X connect 30 0 21 1;
#X connect 30 0 41 0;
#X connect 30 1 24 1;
#X connect 30 1 23 1;
#X connect 30 1 42 0;
#X connect 30 2 29 1;
#X connect 30 2 28 1;
#X connect 30 2 43 0;
#X connect 31 0 40 0;
#X connect 32 0 33 0;
#X connect 33 0 34 0;
#X connect 33 1 35 0;
#X connect 34 0 15 0;
#X connect 35 0 14 0;
#X connect 36 0 39 0;
#X connect 39 0 32 0;
#X connect 39 0 48 0;
#X connect 40 0 30 1;
#X connect 44 0 24 1;
#X connect 44 0 23 1;
#X connect 45 0 44 0;
#X connect 45 0 22 1;
#X connect 45 0 21 1;
#X connect 46 0 19 0;
#X connect 47 0 20 0;
#X connect 49 0 32 0;
#X restore 408 553 pd cross_box1;
#N canvas 606 23 978 431 cross_box2 0;
#X floatatom 427 87 0 0 0 0 - - -;
#X floatatom 217 87 0 0 0 0 - - -;
#X obj 217 11 inlet;
#X obj 427 11 inlet;
#X floatatom 633 35 5 0 0 0 - - -;
#X obj 633 11 r crosspointB;
#X obj 633 60 expr if($f1 == $f2 \, 1 \, 0) \; if($f1 < $f2 \, 1 \,
0) \; if($f1 > $f2 \, 1 \, 0);
#X obj 807 7 loadbang;
#X obj 22 69 random 2;
#X obj 22 93 sel 0 1;
#N canvas 0 23 485 479 binary_mutation 0;
#X floatatom 61 139 5 0 0 0 - - -;
#X floatatom 62 209 3 0 0 0 - - -;
#X floatatom 114 281 0 0 0 0 oB - -;
#X floatatom 238 140 5 0 0 0 o - -;
#X obj 62 186 >> 3;
#X obj 114 256 & 1;
#X obj 62 232 t f f;
#X obj 62 276 -;
#X floatatom 62 300 0 0 0 0 - - -;
#X obj 61 162 t f f;
#X floatatom 62 348 0 0 0 0 - - -;
#X obj 62 324 |;
#X floatatom 114 329 0 0 0 0 - - -;
#X floatatom 238 211 0 0 0 0 - - -;
#X obj 220 236 &;
#X floatatom 220 260 0 0 0 0 - - -;
#X obj 61 374 <<;
#X obj 61 398 |;
#X floatatom 61 422 5 0 0 0 - - -;
#X obj 114 305 == 0;
#X obj 61 12 inlet;
#X obj 61 36 f;
#X obj 61 60 t f b;
#X obj 238 112 + 1;
#X obj 171 12 inlet;
#X floatatom 171 36 5 0 0 0 - - -;
#X obj 61 445 outlet;
#X obj 238 163 expr (65535 >> $f1) << $f1;
#X obj 238 187 expr $f1 ^ 65535;
#X obj 238 88 random 15;
#X obj 249 49 r seed13;
#X connect 0 0 9 0;
#X connect 1 0 6 0;
#X connect 2 0 19 0;
#X connect 3 0 4 1;
#X connect 3 0 16 1;
#X connect 3 0 27 0;
#X connect 4 0 1 0;
#X connect 5 0 2 0;
#X connect 5 0 7 1;
#X connect 6 0 7 0;
#X connect 6 1 5 0;
#X connect 7 0 8 0;
#X connect 8 0 11 0;
#X connect 9 0 4 0;
#X connect 9 1 14 0;
#X connect 10 0 16 0;
#X connect 11 0 10 0;
#X connect 12 0 11 1;
#X connect 13 0 14 1;
#X connect 14 0 15 0;
#X connect 15 0 17 1;
#X connect 16 0 17 0;
#X connect 17 0 18 0;
#X connect 18 0 26 0;
#X connect 19 0 12 0;
#X connect 20 0 21 0;
#X connect 21 0 22 0;
#X connect 22 0 0 0;
#X connect 22 1 29 0;
#X connect 23 0 3 0;
#X connect 24 0 25 0;
#X connect 25 0 21 1;
#X connect 27 0 28 0;
#X connect 28 0 13 0;
#X connect 29 0 23 0;
#X connect 30 0 29 0;
#X restore 22 118 pd binary_mutation;
#N canvas 518 23 485 479 binary_mutation 0;
#X floatatom 61 139 5 0 0 0 - - -;
#X floatatom 62 209 3 0 0 0 - - -;
#X floatatom 114 281 0 0 0 0 oB - -;
#X floatatom 238 140 5 0 0 0 o - -;
#X obj 62 186 >> 3;
#X obj 114 256 & 1;
#X obj 62 232 t f f;
#X obj 62 276 -;
#X floatatom 62 300 0 0 0 0 - - -;
#X obj 61 162 t f f;
#X floatatom 62 348 0 0 0 0 - - -;
#X obj 62 324 |;
#X floatatom 114 329 0 0 0 0 - - -;
#X floatatom 238 211 0 0 0 0 - - -;
#X obj 220 236 &;
#X floatatom 220 260 0 0 0 0 - - -;
#X obj 61 374 <<;
#X obj 61 398 |;
#X floatatom 61 422 5 0 0 0 - - -;
#X obj 114 305 == 0;
#X obj 61 12 inlet;
#X obj 61 36 f;
#X obj 61 60 t f b;
#X obj 238 112 + 1;
#X obj 171 12 inlet;
#X floatatom 171 36 5 0 0 0 - - -;
#X obj 61 445 outlet;
#X obj 238 88 random 15;
#X obj 238 163 expr (65535 >> $f1) << $f1;
#X obj 238 187 expr $f1 ^ 65535;
#X obj 249 49 r seed14;
#X connect 0 0 9 0;
#X connect 1 0 6 0;
#X connect 2 0 19 0;
#X connect 3 0 4 1;
#X connect 3 0 16 1;
#X connect 3 0 28 0;
#X connect 4 0 1 0;
#X connect 5 0 2 0;
#X connect 5 0 7 1;
#X connect 6 0 7 0;
#X connect 6 1 5 0;
#X connect 7 0 8 0;
#X connect 8 0 11 0;
#X connect 9 0 4 0;
#X connect 9 1 14 0;
#X connect 10 0 16 0;
#X connect 11 0 10 0;
#X connect 12 0 11 1;
#X connect 13 0 14 1;
#X connect 14 0 15 0;
#X connect 15 0 17 1;
#X connect 16 0 17 0;
#X connect 17 0 18 0;
#X connect 18 0 26 0;
#X connect 19 0 12 0;
#X connect 20 0 21 0;
#X connect 21 0 22 0;
#X connect 22 0 0 0;
#X connect 22 1 27 0;
#X connect 23 0 3 0;
#X connect 24 0 25 0;
#X connect 25 0 21 1;
#X connect 27 0 23 0;
#X connect 28 0 29 0;
#X connect 29 0 13 0;
#X connect 30 0 27 0;
#X restore 65 143 pd binary_mutation;
#X obj 22 19 r mutation_num;
#X text 64 43 <-----;
#X text 835 31 <-----;
#X obj 22 43 sel 2;
#X msg 807 31 2;
#X floatatom 469 238 5 0 0 0 - - -;
#X obj 427 190 t f f;
#X obj 427 214 -;
#X floatatom 427 238 5 0 0 0 - - -;
#X obj 469 214 >>;
#X floatatom 259 238 5 0 0 0 - - -;
#X obj 217 190 t f f;
#X obj 217 214 -;
#X floatatom 217 238 5 0 0 0 - - -;
#X obj 259 214 >>;
#X obj 217 261 +;
#X obj 409 261 +;
#X floatatom 409 285 0 0 0 0 - - -;
#X floatatom 217 285 0 0 0 0 - - -;
#X floatatom 753 175 5 0 0 0 - - -;
#X obj 217 332 outlet;
#X obj 409 332 outlet;
#X obj 217 165 spigot;
#X obj 427 165 spigot;
#X obj 287 165 spigot;
#X obj 497 165 spigot;
#X obj 753 151 r crosspointA;
#X obj 357 165 spigot;
#X obj 567 165 spigot;
#X obj 635 166 tgl 15 0 empty empty empty 17 7 0 10 -262144 -1 -1 0
1;
#X obj 655 166 tgl 15 0 empty empty empty 17 7 0 10 -262144 -1 -1 0
1;
#X obj 675 166 tgl 15 0 empty empty empty 17 7 0 10 -262144 -1 -1 1
1;
#X obj 560 56 == 2;
#X obj 560 80 == 0;
#X obj 217 308 clip 256 65535;
#X obj 409 308 clip 256 65535;
#X obj 119 44 r seed12;
#X connect 0 0 35 0;
#X connect 0 0 37 0;
#X connect 0 0 40 0;
#X connect 1 0 34 0;
#X connect 1 0 39 0;
#X connect 1 0 36 0;
#X connect 2 0 1 0;
#X connect 3 0 0 0;
#X connect 4 0 6 0;
#X connect 5 0 4 0;
#X connect 6 0 35 1;
#X connect 6 0 34 1;
#X connect 6 0 41 0;
#X connect 6 1 37 1;
#X connect 6 1 36 1;
#X connect 6 1 42 0;
#X connect 6 2 40 1;
#X connect 6 2 39 1;
#X connect 6 2 43 0;
#X connect 7 0 16 0;
#X connect 8 0 9 0;
#X connect 9 0 10 0;
#X connect 9 1 11 0;
#X connect 10 0 30 0;
#X connect 11 0 29 0;
#X connect 12 0 15 0;
#X connect 15 0 8 0;
#X connect 16 0 6 1;
#X connect 17 0 27 1;
#X connect 18 0 19 0;
#X connect 18 1 21 0;
#X connect 19 0 20 0;
#X connect 20 0 28 1;
#X connect 21 0 17 0;
#X connect 21 0 19 1;
#X connect 22 0 28 0;
#X connect 23 0 24 0;
#X connect 23 1 26 0;
#X connect 24 0 25 0;
#X connect 25 0 27 0;
#X connect 26 0 22 0;
#X connect 26 0 24 1;
#X connect 27 0 30 0;
#X connect 27 0 10 1;
#X connect 28 0 29 0;
#X connect 28 0 11 1;
#X connect 29 0 47 0;
#X connect 30 0 46 0;
#X connect 31 0 21 1;
#X connect 31 0 26 1;
#X connect 34 0 23 0;
#X connect 35 0 18 0;
#X connect 36 0 46 0;
#X connect 37 0 47 0;
#X connect 38 0 31 0;
#X connect 39 0 47 0;
#X connect 40 0 46 0;
#X connect 44 0 45 0;
#X connect 44 0 34 1;
#X connect 44 0 35 1;
#X connect 45 0 36 1;
#X connect 45 0 37 1;
#X connect 46 0 32 0;
#X connect 47 0 33 0;
#X connect 48 0 8 0;
#X restore 508 553 pd cross_box2;
#X obj 38 289 t b b b b b f;
#X obj 38 543 t b b;
#X obj 378 643 r c&m_gene_next;
#X obj 606 643 r c&m_gene_next;
#X obj 719 353 random 15;
#N canvas 606 23 978 431 cross_box3 0;
#X floatatom 427 87 0 0 0 0 - - -;
#X floatatom 217 87 0 0 0 0 - - -;
#X obj 217 11 inlet;
#X obj 427 11 inlet;
#X floatatom 633 35 5 0 0 0 - - -;
#X obj 633 11 r crosspointB;
#X obj 633 60 expr if($f1 == $f2 \, 1 \, 0) \; if($f1 < $f2 \, 1 \,
0) \; if($f1 > $f2 \, 1 \, 0);
#X obj 807 7 loadbang;
#X obj 22 69 random 2;
#X obj 22 93 sel 0 1;
#N canvas 0 23 485 479 binary_mutation 0;
#X floatatom 61 139 5 0 0 0 - - -;
#X floatatom 62 209 3 0 0 0 - - -;
#X floatatom 114 281 0 0 0 0 oB - -;
#X floatatom 238 140 5 0 0 0 o - -;
#X obj 62 186 >> 3;
#X obj 114 256 & 1;
#X obj 62 232 t f f;
#X obj 62 276 -;
#X floatatom 62 300 0 0 0 0 - - -;
#X obj 61 162 t f f;
#X floatatom 62 348 0 0 0 0 - - -;
#X obj 62 324 |;
#X floatatom 114 329 0 0 0 0 - - -;
#X floatatom 238 211 0 0 0 0 - - -;
#X obj 220 236 &;
#X floatatom 220 260 0 0 0 0 - - -;
#X obj 61 374 <<;
#X obj 61 398 |;
#X floatatom 61 422 5 0 0 0 - - -;
#X obj 114 305 == 0;
#X obj 61 12 inlet;
#X obj 61 36 f;
#X obj 61 60 t f b;
#X obj 238 112 + 1;
#X obj 171 12 inlet;
#X floatatom 171 36 5 0 0 0 - - -;
#X obj 61 445 outlet;
#X obj 238 163 expr (65535 >> $f1) << $f1;
#X obj 238 187 expr $f1 ^ 65535;
#X obj 238 88 random 16;
#X obj 249 49 r seed16;
#X connect 0 0 9 0;
#X connect 1 0 6 0;
#X connect 2 0 19 0;
#X connect 3 0 4 1;
#X connect 3 0 16 1;
#X connect 3 0 27 0;
#X connect 4 0 1 0;
#X connect 5 0 2 0;
#X connect 5 0 7 1;
#X connect 6 0 7 0;
#X connect 6 1 5 0;
#X connect 7 0 8 0;
#X connect 8 0 11 0;
#X connect 9 0 4 0;
#X connect 9 1 14 0;
#X connect 10 0 16 0;
#X connect 11 0 10 0;
#X connect 12 0 11 1;
#X connect 13 0 14 1;
#X connect 14 0 15 0;
#X connect 15 0 17 1;
#X connect 16 0 17 0;
#X connect 17 0 18 0;
#X connect 18 0 26 0;
#X connect 19 0 12 0;
#X connect 20 0 21 0;
#X connect 21 0 22 0;
#X connect 22 0 0 0;
#X connect 22 1 29 0;
#X connect 23 0 3 0;
#X connect 24 0 25 0;
#X connect 25 0 21 1;
#X connect 27 0 28 0;
#X connect 28 0 13 0;
#X connect 29 0 23 0;
#X connect 30 0 29 0;
#X restore 22 118 pd binary_mutation;
#N canvas 518 23 485 479 binary_mutation 0;
#X floatatom 61 139 5 0 0 0 - - -;
#X floatatom 62 209 3 0 0 0 - - -;
#X floatatom 114 281 0 0 0 0 oB - -;
#X floatatom 238 140 5 0 0 0 o - -;
#X obj 62 186 >> 3;
#X obj 114 256 & 1;
#X obj 62 232 t f f;
#X obj 62 276 -;
#X floatatom 62 300 0 0 0 0 - - -;
#X obj 61 162 t f f;
#X floatatom 62 348 0 0 0 0 - - -;
#X obj 62 324 |;
#X floatatom 114 329 0 0 0 0 - - -;
#X floatatom 238 211 0 0 0 0 - - -;
#X obj 220 236 &;
#X floatatom 220 260 0 0 0 0 - - -;
#X obj 61 374 <<;
#X obj 61 398 |;
#X floatatom 61 422 5 0 0 0 - - -;
#X obj 114 305 == 0;
#X obj 61 12 inlet;
#X obj 61 36 f;
#X obj 61 60 t f b;
#X obj 238 112 + 1;
#X obj 171 12 inlet;
#X floatatom 171 36 5 0 0 0 - - -;
#X obj 61 445 outlet;
#X obj 238 88 random 15;
#X obj 238 187 expr $f1 ^ 65535;
#X obj 238 163 expr (65535 >> $f1) << $f1;
#X obj 249 49 r seed17;
#X connect 0 0 9 0;
#X connect 1 0 6 0;
#X connect 2 0 19 0;
#X connect 3 0 4 1;
#X connect 3 0 16 1;
#X connect 3 0 29 0;
#X connect 4 0 1 0;
#X connect 5 0 2 0;
#X connect 5 0 7 1;
#X connect 6 0 7 0;
#X connect 6 1 5 0;
#X connect 7 0 8 0;
#X connect 8 0 11 0;
#X connect 9 0 4 0;
#X connect 9 1 14 0;
#X connect 10 0 16 0;
#X connect 11 0 10 0;
#X connect 12 0 11 1;
#X connect 13 0 14 1;
#X connect 14 0 15 0;
#X connect 15 0 17 1;
#X connect 16 0 17 0;
#X connect 17 0 18 0;
#X connect 18 0 26 0;
#X connect 19 0 12 0;
#X connect 20 0 21 0;
#X connect 21 0 22 0;
#X connect 22 0 0 0;
#X connect 22 1 27 0;
#X connect 23 0 3 0;
#X connect 24 0 25 0;
#X connect 25 0 21 1;
#X connect 27 0 23 0;
#X connect 28 0 13 0;
#X connect 29 0 28 0;
#X connect 30 0 27 0;
#X restore 65 143 pd binary_mutation;
#X obj 22 19 r mutation_num;
#X text 64 43 <-----;
#X text 835 31 <-----;
#X floatatom 469 238 5 0 0 0 - - -;
#X obj 427 190 t f f;
#X obj 427 214 -;
#X floatatom 427 238 5 0 0 0 - - -;
#X obj 469 214 >>;
#X floatatom 259 238 5 0 0 0 - - -;
#X obj 217 190 t f f;
#X obj 217 214 -;
#X floatatom 217 238 5 0 0 0 - - -;
#X obj 259 214 >>;
#X obj 217 261 +;
#X obj 409 261 +;
#X floatatom 409 285 0 0 0 0 - - -;
#X floatatom 217 285 0 0 0 0 - - -;
#X floatatom 753 175 5 0 0 0 - - -;
#X obj 217 332 outlet;
#X obj 409 332 outlet;
#X obj 217 165 spigot;
#X obj 427 165 spigot;
#X obj 287 165 spigot;
#X obj 497 165 spigot;
#X obj 753 151 r crosspointA;
#X obj 357 165 spigot;
#X obj 567 165 spigot;
#X obj 635 166 tgl 15 0 empty empty empty 17 7 0 10 -262144 -1 -1 1
1;
#X obj 655 166 tgl 15 0 empty empty empty 17 7 0 10 -262144 -1 -1 0
1;
#X obj 675 166 tgl 15 0 empty empty empty 17 7 0 10 -262144 -1 -1 0
1;
#X obj 560 56 == 2;
#X obj 560 80 == 0;
#X msg 807 31 3;
#X obj 22 43 sel 3;
#X obj 217 308 clip 256 65535;
#X obj 409 308 clip 256 65535;
#X obj 125 46 r seed15;
#X connect 0 0 33 0;
#X connect 0 0 35 0;
#X connect 0 0 38 0;
#X connect 1 0 32 0;
#X connect 1 0 37 0;
#X connect 1 0 34 0;
#X connect 2 0 1 0;
#X connect 3 0 0 0;
#X connect 4 0 6 0;
#X connect 5 0 4 0;
#X connect 6 0 33 1;
#X connect 6 0 32 1;
#X connect 6 0 39 0;
#X connect 6 1 35 1;
#X connect 6 1 34 1;
#X connect 6 1 40 0;
#X connect 6 2 38 1;
#X connect 6 2 37 1;
#X connect 6 2 41 0;
#X connect 7 0 44 0;
#X connect 8 0 9 0;
#X connect 9 0 10 0;
#X connect 9 1 11 0;
#X connect 10 0 28 0;
#X connect 11 0 27 0;
#X connect 12 0 45 0;
#X connect 15 0 25 1;
#X connect 16 0 17 0;
#X connect 16 1 19 0;
#X connect 17 0 18 0;
#X connect 18 0 26 1;
#X connect 19 0 15 0;
#X connect 19 0 17 1;
#X connect 20 0 26 0;
#X connect 21 0 22 0;
#X connect 21 1 24 0;
#X connect 22 0 23 0;
#X connect 23 0 25 0;
#X connect 24 0 20 0;
#X connect 24 0 22 1;
#X connect 25 0 28 0;
#X connect 25 0 10 1;
#X connect 26 0 27 0;
#X connect 26 0 11 1;
#X connect 27 0 47 0;
#X connect 28 0 46 0;
#X connect 29 0 19 1;
#X connect 29 0 24 1;
#X connect 32 0 21 0;
#X connect 33 0 16 0;
#X connect 34 0 46 0;
#X connect 35 0 47 0;
#X connect 36 0 29 0;
#X connect 37 0 47 0;
#X connect 38 0 46 0;
#X connect 42 0 43 0;
#X connect 42 0 32 1;
#X connect 42 0 33 1;
#X connect 43 0 34 1;
#X connect 43 0 35 1;
#X connect 44 0 6 1;
#X connect 45 0 8 0;
#X connect 46 0 30 0;
#X connect 47 0 31 0;
#X connect 48 0 8 0;
#X restore 608 553 pd cross_box3;
#X obj 68 264 + 12;
#X msg 78 215 120;
#X obj 308 472 array get 0 6;
#X obj 518 472 array get 0 6;
#X obj 518 496 unpack 0 0 0 0 0 0;
#X obj 308 496 unpack 0 0 0 0 0 0;
#X obj 290 666 array set 0 6;
#X obj 518 666 array set 0 6;
#X obj 518 619 pack 0 0 0 0 0 0;
#X obj 290 619 pack 0 0 0 0 0 0;
#N canvas 606 23 978 431 cross_box4 0;
#X floatatom 427 87 0 0 0 0 - - -;
#X floatatom 217 87 0 0 0 0 - - -;
#X obj 217 11 inlet;
#X obj 427 11 inlet;
#X floatatom 633 35 5 0 0 0 - - -;
#X obj 633 11 r crosspointB;
#X obj 633 60 expr if($f1 == $f2 \, 1 \, 0) \; if($f1 < $f2 \, 1 \,
0) \; if($f1 > $f2 \, 1 \, 0);
#X obj 807 7 loadbang;
#X obj 22 69 random 2;
#X obj 22 93 sel 0 1;
#N canvas 0 23 485 479 binary_mutation 0;
#X floatatom 61 139 5 0 0 0 - - -;
#X floatatom 62 209 3 0 0 0 - - -;
#X floatatom 114 281 0 0 0 0 oB - -;
#X floatatom 238 140 5 0 0 0 o - -;
#X obj 62 186 >> 3;
#X obj 114 256 & 1;
#X obj 62 232 t f f;
#X obj 62 276 -;
#X floatatom 62 300 0 0 0 0 - - -;
#X obj 61 162 t f f;
#X floatatom 62 348 0 0 0 0 - - -;
#X obj 62 324 |;
#X floatatom 114 329 0 0 0 0 - - -;
#X floatatom 238 211 0 0 0 0 - - -;
#X obj 220 236 &;
#X floatatom 220 260 0 0 0 0 - - -;
#X obj 61 374 <<;
#X obj 61 398 |;
#X floatatom 61 422 5 0 0 0 - - -;
#X obj 114 305 == 0;
#X obj 61 12 inlet;
#X obj 61 36 f;
#X obj 61 60 t f b;
#X obj 238 112 + 1;
#X obj 171 12 inlet;
#X floatatom 171 36 5 0 0 0 - - -;
#X obj 61 445 outlet;
#X obj 238 163 expr (65535 >> $f1) << $f1;
#X obj 238 187 expr $f1 ^ 65535;
#X obj 238 88 random 15;
#X obj 249 49 r seed19;
#X connect 0 0 9 0;
#X connect 1 0 6 0;
#X connect 2 0 19 0;
#X connect 3 0 4 1;
#X connect 3 0 16 1;
#X connect 3 0 27 0;
#X connect 4 0 1 0;
#X connect 5 0 2 0;
#X connect 5 0 7 1;
#X connect 6 0 7 0;
#X connect 6 1 5 0;
#X connect 7 0 8 0;
#X connect 8 0 11 0;
#X connect 9 0 4 0;
#X connect 9 1 14 0;
#X connect 10 0 16 0;
#X connect 11 0 10 0;
#X connect 12 0 11 1;
#X connect 13 0 14 1;
#X connect 14 0 15 0;
#X connect 15 0 17 1;
#X connect 16 0 17 0;
#X connect 17 0 18 0;
#X connect 18 0 26 0;
#X connect 19 0 12 0;
#X connect 20 0 21 0;
#X connect 21 0 22 0;
#X connect 22 0 0 0;
#X connect 22 1 29 0;
#X connect 23 0 3 0;
#X connect 24 0 25 0;
#X connect 25 0 21 1;
#X connect 27 0 28 0;
#X connect 28 0 13 0;
#X connect 29 0 23 0;
#X connect 30 0 29 0;
#X restore 22 118 pd binary_mutation;
#N canvas 518 23 485 479 binary_mutation 0;
#X floatatom 61 139 5 0 0 0 - - -;
#X floatatom 62 209 3 0 0 0 - - -;
#X floatatom 114 281 0 0 0 0 oB - -;
#X floatatom 238 140 5 0 0 0 o - -;
#X obj 62 186 >> 3;
#X obj 114 256 & 1;
#X obj 62 232 t f f;
#X obj 62 276 -;
#X floatatom 62 300 0 0 0 0 - - -;
#X obj 61 162 t f f;
#X floatatom 62 348 0 0 0 0 - - -;
#X obj 62 324 |;
#X floatatom 114 329 0 0 0 0 - - -;
#X floatatom 238 211 0 0 0 0 - - -;
#X obj 220 236 &;
#X floatatom 220 260 0 0 0 0 - - -;
#X obj 61 374 <<;
#X obj 61 398 |;
#X floatatom 61 422 5 0 0 0 - - -;
#X obj 114 305 == 0;
#X obj 61 12 inlet;
#X obj 61 36 f;
#X obj 61 60 t f b;
#X obj 238 112 + 1;
#X obj 171 12 inlet;
#X floatatom 171 36 5 0 0 0 - - -;
#X obj 61 445 outlet;
#X obj 238 88 random 15;
#X obj 238 163 expr (65535 >> $f1) << $f1;
#X obj 238 187 expr $f1 ^ 65535;
#X obj 249 49 r seed20;
#X connect 0 0 9 0;
#X connect 1 0 6 0;
#X connect 2 0 19 0;
#X connect 3 0 4 1;
#X connect 3 0 16 1;
#X connect 3 0 28 0;
#X connect 4 0 1 0;
#X connect 5 0 2 0;
#X connect 5 0 7 1;
#X connect 6 0 7 0;
#X connect 6 1 5 0;
#X connect 7 0 8 0;
#X connect 8 0 11 0;
#X connect 9 0 4 0;
#X connect 9 1 14 0;
#X connect 10 0 16 0;
#X connect 11 0 10 0;
#X connect 12 0 11 1;
#X connect 13 0 14 1;
#X connect 14 0 15 0;
#X connect 15 0 17 1;
#X connect 16 0 17 0;
#X connect 17 0 18 0;
#X connect 18 0 26 0;
#X connect 19 0 12 0;
#X connect 20 0 21 0;
#X connect 21 0 22 0;
#X connect 22 0 0 0;
#X connect 22 1 27 0;
#X connect 23 0 3 0;
#X connect 24 0 25 0;
#X connect 25 0 21 1;
#X connect 27 0 23 0;
#X connect 28 0 29 0;
#X connect 29 0 13 0;
#X connect 30 0 27 0;
#X restore 65 143 pd binary_mutation;
#X obj 22 19 r mutation_num;
#X text 64 43 <-----;
#X text 835 31 <-----;
#X floatatom 469 238 5 0 0 0 - - -;
#X obj 427 190 t f f;
#X obj 427 214 -;
#X floatatom 427 238 5 0 0 0 - - -;
#X obj 469 214 >>;
#X floatatom 259 238 5 0 0 0 - - -;
#X obj 217 190 t f f;
#X obj 217 214 -;
#X floatatom 217 238 5 0 0 0 - - -;
#X obj 259 214 >>;
#X obj 217 261 +;
#X obj 409 261 +;
#X floatatom 409 285 0 0 0 0 - - -;
#X floatatom 217 285 0 0 0 0 - - -;
#X floatatom 753 175 5 0 0 0 - - -;
#X obj 217 332 outlet;
#X obj 409 332 outlet;
#X obj 217 165 spigot;
#X obj 427 165 spigot;
#X obj 287 165 spigot;
#X obj 497 165 spigot;
#X obj 753 151 r crosspointA;
#X obj 357 165 spigot;
#X obj 567 165 spigot;
#X obj 635 166 tgl 15 0 empty empty empty 17 7 0 10 -262144 -1 -1 0
1;
#X obj 655 166 tgl 15 0 empty empty empty 17 7 0 10 -262144 -1 -1 1
1;
#X obj 675 166 tgl 15 0 empty empty empty 17 7 0 10 -262144 -1 -1 0
1;
#X obj 560 56 == 2;
#X obj 560 80 == 0;
#X obj 217 308 clip 256 65535;
#X obj 409 308 clip 256 65535;
#X msg 807 31 4;
#X obj 22 43 sel 4;
#X obj 124 45 r seed18;
#X connect 0 0 33 0;
#X connect 0 0 35 0;
#X connect 0 0 38 0;
#X connect 1 0 32 0;
#X connect 1 0 37 0;
#X connect 1 0 34 0;
#X connect 2 0 1 0;
#X connect 3 0 0 0;
#X connect 4 0 6 0;
#X connect 5 0 4 0;
#X connect 6 0 33 1;
#X connect 6 0 32 1;
#X connect 6 0 39 0;
#X connect 6 1 35 1;
#X connect 6 1 34 1;
#X connect 6 1 40 0;
#X connect 6 2 38 1;
#X connect 6 2 37 1;
#X connect 6 2 41 0;
#X connect 7 0 46 0;
#X connect 8 0 9 0;
#X connect 9 0 10 0;
#X connect 9 1 11 0;
#X connect 10 0 28 0;
#X connect 11 0 27 0;
#X connect 12 0 47 0;
#X connect 15 0 25 1;
#X connect 16 0 17 0;
#X connect 16 1 19 0;
#X connect 17 0 18 0;
#X connect 18 0 26 1;
#X connect 19 0 15 0;
#X connect 19 0 17 1;
#X connect 20 0 26 0;
#X connect 21 0 22 0;
#X connect 21 1 24 0;
#X connect 22 0 23 0;
#X connect 23 0 25 0;
#X connect 24 0 20 0;
#X connect 24 0 22 1;
#X connect 25 0 28 0;
#X connect 25 0 10 1;
#X connect 26 0 27 0;
#X connect 26 0 11 1;
#X connect 27 0 45 0;
#X connect 28 0 44 0;
#X connect 29 0 19 1;
#X connect 29 0 24 1;
#X connect 32 0 21 0;
#X connect 33 0 16 0;
#X connect 34 0 44 0;
#X connect 35 0 45 0;
#X connect 36 0 29 0;
#X connect 37 0 45 0;
#X connect 38 0 44 0;
#X connect 42 0 43 0;
#X connect 42 0 32 1;
#X connect 42 0 33 1;
#X connect 43 0 34 1;
#X connect 43 0 35 1;
#X connect 44 0 30 0;
#X connect 45 0 31 0;
#X connect 46 0 6 1;
#X connect 47 0 8 0;
#X connect 48 0 8 0;
#X restore 708 553 pd cross_box4;
#N canvas 606 23 978 431 cross_box5 0;
#X floatatom 427 87 0 0 0 0 - - -;
#X floatatom 217 87 0 0 0 0 - - -;
#X obj 217 11 inlet;
#X obj 427 11 inlet;
#X floatatom 633 35 5 0 0 0 - - -;
#X obj 633 11 r crosspointB;
#X obj 633 60 expr if($f1 == $f2 \, 1 \, 0) \; if($f1 < $f2 \, 1 \,
0) \; if($f1 > $f2 \, 1 \, 0);
#X obj 807 7 loadbang;
#X obj 22 69 random 2;
#X obj 22 93 sel 0 1;
#N canvas 0 23 485 479 binary_mutation 0;
#X floatatom 61 139 5 0 0 0 - - -;
#X floatatom 62 209 3 0 0 0 - - -;
#X floatatom 114 281 0 0 0 0 oB - -;
#X floatatom 238 140 5 0 0 0 o - -;
#X obj 62 186 >> 3;
#X obj 114 256 & 1;
#X obj 62 232 t f f;
#X obj 62 276 -;
#X floatatom 62 300 0 0 0 0 - - -;
#X obj 61 162 t f f;
#X floatatom 62 348 0 0 0 0 - - -;
#X obj 62 324 |;
#X floatatom 114 329 0 0 0 0 - - -;
#X floatatom 238 211 0 0 0 0 - - -;
#X obj 220 236 &;
#X floatatom 220 260 0 0 0 0 - - -;
#X obj 61 374 <<;
#X obj 61 398 |;
#X floatatom 61 422 5 0 0 0 - - -;
#X obj 114 305 == 0;
#X obj 61 12 inlet;
#X obj 61 36 f;
#X obj 61 60 t f b;
#X obj 238 112 + 1;
#X obj 171 12 inlet;
#X floatatom 171 36 5 0 0 0 - - -;
#X obj 61 445 outlet;
#X obj 238 163 expr (65535 >> $f1) << $f1;
#X obj 238 187 expr $f1 ^ 65535;
#X obj 238 88 random 16;
#X obj 249 49 r seed22;
#X connect 0 0 9 0;
#X connect 1 0 6 0;
#X connect 2 0 19 0;
#X connect 3 0 4 1;
#X connect 3 0 16 1;
#X connect 3 0 27 0;
#X connect 4 0 1 0;
#X connect 5 0 2 0;
#X connect 5 0 7 1;
#X connect 6 0 7 0;
#X connect 6 1 5 0;
#X connect 7 0 8 0;
#X connect 8 0 11 0;
#X connect 9 0 4 0;
#X connect 9 1 14 0;
#X connect 10 0 16 0;
#X connect 11 0 10 0;
#X connect 12 0 11 1;
#X connect 13 0 14 1;
#X connect 14 0 15 0;
#X connect 15 0 17 1;
#X connect 16 0 17 0;
#X connect 17 0 18 0;
#X connect 18 0 26 0;
#X connect 19 0 12 0;
#X connect 20 0 21 0;
#X connect 21 0 22 0;
#X connect 22 0 0 0;
#X connect 22 1 29 0;
#X connect 23 0 3 0;
#X connect 24 0 25 0;
#X connect 25 0 21 1;
#X connect 27 0 28 0;
#X connect 28 0 13 0;
#X connect 29 0 23 0;
#X connect 30 0 29 0;
#X restore 22 118 pd binary_mutation;
#N canvas 518 23 485 479 binary_mutation 0;
#X floatatom 61 139 5 0 0 0 - - -;
#X floatatom 62 209 3 0 0 0 - - -;
#X floatatom 114 281 0 0 0 0 oB - -;
#X floatatom 238 140 5 0 0 0 o - -;
#X obj 62 186 >> 3;
#X obj 114 256 & 1;
#X obj 62 232 t f f;
#X obj 62 276 -;
#X floatatom 62 300 0 0 0 0 - - -;
#X obj 61 162 t f f;
#X floatatom 62 348 0 0 0 0 - - -;
#X obj 62 324 |;
#X floatatom 114 329 0 0 0 0 - - -;
#X floatatom 238 211 0 0 0 0 - - -;
#X obj 220 236 &;
#X floatatom 220 260 0 0 0 0 - - -;
#X obj 61 374 <<;
#X obj 61 398 |;
#X floatatom 61 422 5 0 0 0 - - -;
#X obj 114 305 == 0;
#X obj 61 12 inlet;
#X obj 61 36 f;
#X obj 61 60 t f b;
#X obj 238 112 + 1;
#X obj 171 12 inlet;
#X floatatom 171 36 5 0 0 0 - - -;
#X obj 61 445 outlet;
#X obj 238 88 random 15;
#X obj 238 187 expr $f1 ^ 65535;
#X obj 238 163 expr (65535 >> $f1) << $f1;
#X obj 249 49 r seed23;
#X connect 0 0 9 0;
#X connect 1 0 6 0;
#X connect 2 0 19 0;
#X connect 3 0 4 1;
#X connect 3 0 16 1;
#X connect 3 0 29 0;
#X connect 4 0 1 0;
#X connect 5 0 2 0;
#X connect 5 0 7 1;
#X connect 6 0 7 0;
#X connect 6 1 5 0;
#X connect 7 0 8 0;
#X connect 8 0 11 0;
#X connect 9 0 4 0;
#X connect 9 1 14 0;
#X connect 10 0 16 0;
#X connect 11 0 10 0;
#X connect 12 0 11 1;
#X connect 13 0 14 1;
#X connect 14 0 15 0;
#X connect 15 0 17 1;
#X connect 16 0 17 0;
#X connect 17 0 18 0;
#X connect 18 0 26 0;
#X connect 19 0 12 0;
#X connect 20 0 21 0;
#X connect 21 0 22 0;
#X connect 22 0 0 0;
#X connect 22 1 27 0;
#X connect 23 0 3 0;
#X connect 24 0 25 0;
#X connect 25 0 21 1;
#X connect 27 0 23 0;
#X connect 28 0 13 0;
#X connect 29 0 28 0;
#X connect 30 0 27 0;
#X restore 65 143 pd binary_mutation;
#X obj 22 19 r mutation_num;
#X text 64 43 <-----;
#X text 835 31 <-----;
#X floatatom 469 238 5 0 0 0 - - -;
#X obj 427 190 t f f;
#X obj 427 214 -;
#X floatatom 427 238 5 0 0 0 - - -;
#X obj 469 214 >>;
#X floatatom 259 238 5 0 0 0 - - -;
#X obj 217 190 t f f;
#X obj 217 214 -;
#X floatatom 217 238 5 0 0 0 - - -;
#X obj 259 214 >>;
#X obj 217 261 +;
#X obj 409 261 +;
#X floatatom 409 285 0 0 0 0 - - -;
#X floatatom 217 285 0 0 0 0 - - -;
#X floatatom 753 175 5 0 0 0 - - -;
#X obj 217 332 outlet;
#X obj 409 332 outlet;
#X obj 217 165 spigot;
#X obj 427 165 spigot;
#X obj 287 165 spigot;
#X obj 497 165 spigot;
#X obj 753 151 r crosspointA;
#X obj 357 165 spigot;
#X obj 567 165 spigot;
#X obj 635 166 tgl 15 0 empty empty empty 17 7 0 10 -262144 -1 -1 0
1;
#X obj 655 166 tgl 15 0 empty empty empty 17 7 0 10 -262144 -1 -1 1
1;
#X obj 675 166 tgl 15 0 empty empty empty 17 7 0 10 -262144 -1 -1 0
1;
#X obj 560 56 == 2;
#X obj 560 80 == 0;
#X obj 217 308 clip 256 65535;
#X obj 409 308 clip 256 65535;
#X msg 807 31 5;
#X obj 22 43 sel 5;
#X obj 94 80 bng 15 250 50 0 empty empty empty 17 7 0 10 -262144 -1
-1;
#X obj 130 46 r seed21;
#X connect 0 0 33 0;
#X connect 0 0 35 0;
#X connect 0 0 38 0;
#X connect 1 0 32 0;
#X connect 1 0 37 0;
#X connect 1 0 34 0;
#X connect 2 0 1 0;
#X connect 3 0 0 0;
#X connect 4 0 6 0;
#X connect 5 0 4 0;
#X connect 6 0 33 1;
#X connect 6 0 32 1;
#X connect 6 0 39 0;
#X connect 6 1 35 1;
#X connect 6 1 34 1;
#X connect 6 1 40 0;
#X connect 6 2 38 1;
#X connect 6 2 37 1;
#X connect 6 2 41 0;
#X connect 7 0 46 0;
#X connect 8 0 9 0;
#X connect 9 0 10 0;
#X connect 9 1 11 0;
#X connect 10 0 28 0;
#X connect 11 0 27 0;
#X connect 12 0 47 0;
#X connect 15 0 25 1;
#X connect 16 0 17 0;
#X connect 16 1 19 0;
#X connect 17 0 18 0;
#X connect 18 0 26 1;
#X connect 19 0 15 0;
#X connect 19 0 17 1;
#X connect 20 0 26 0;
#X connect 21 0 22 0;
#X connect 21 1 24 0;
#X connect 22 0 23 0;
#X connect 23 0 25 0;
#X connect 24 0 20 0;
#X connect 24 0 22 1;
#X connect 25 0 28 0;
#X connect 25 0 10 1;
#X connect 26 0 27 0;
#X connect 26 0 11 1;
#X connect 27 0 45 0;
#X connect 28 0 44 0;
#X connect 29 0 19 1;
#X connect 29 0 24 1;
#X connect 32 0 21 0;
#X connect 33 0 16 0;
#X connect 34 0 44 0;
#X connect 35 0 45 0;
#X connect 36 0 29 0;
#X connect 37 0 45 0;
#X connect 38 0 44 0;
#X connect 42 0 43 0;
#X connect 42 0 32 1;
#X connect 42 0 33 1;
#X connect 43 0 34 1;
#X connect 43 0 35 1;
#X connect 44 0 30 0;
#X connect 45 0 31 0;
#X connect 46 0 6 1;
#X connect 47 0 8 0;
#X connect 47 0 48 0;
#X connect 49 0 8 0;
#X restore 808 553 pd cross_box5;
#X obj 58 434 random 6;
#X obj 308 425 * 6;
#X obj 518 425 * 6;
#X obj 810 376 + 6;
#X obj 608 353 random 6;
#X obj 83 331 r seed1;
#X obj 335 293 r seed2;
#X obj 532 292 r seed3;
#X obj 642 286 r seed4;
#X obj 737 284 r seed5;
#X obj 58 362 random 10000;
#X obj 58 386 moses 100;
#X connect 0 0 16 0;
#X connect 1 0 2 0;
#X connect 2 0 13 0;
#X connect 3 0 7 0;
#X connect 5 0 3 0;
#X connect 6 0 3 1;
#X connect 6 0 57 0;
#X connect 7 0 56 0;
#X connect 8 0 9 0;
#X connect 9 0 31 0;
#X connect 11 0 12 0;
#X connect 12 0 1 0;
#X connect 12 1 44 0;
#X connect 13 0 37 0;
#X connect 13 0 43 0;
#X connect 14 0 49 1;
#X connect 14 0 58 0;
#X connect 15 0 50 1;
#X connect 16 0 11 0;
#X connect 16 1 17 0;
#X connect 16 1 18 0;
#X connect 17 0 25 0;
#X connect 18 0 26 0;
#X connect 19 0 55 0;
#X connect 19 1 22 0;
#X connect 20 0 21 0;
#X connect 21 0 66 1;
#X connect 23 0 30 0;
#X connect 27 0 46 2;
#X connect 28 0 45 2;
#X connect 29 0 32 1;
#X connect 29 1 33 1;
#X connect 32 0 52 0;
#X connect 33 0 51 0;
#X connect 35 0 52 1;
#X connect 35 1 51 1;
#X connect 36 0 52 2;
#X connect 36 1 51 2;
#X connect 37 0 38 0;
#X connect 37 1 65 0;
#X connect 37 2 5 0;
#X connect 37 3 6 0;
#X connect 37 4 41 0;
#X connect 37 4 59 0;
#X connect 37 5 14 0;
#X connect 38 0 32 0;
#X connect 38 1 33 0;
#X connect 39 0 49 2;
#X connect 40 0 50 2;
#X connect 41 0 8 0;
#X connect 42 0 52 3;
#X connect 42 1 51 3;
#X connect 43 0 13 1;
#X connect 44 0 13 1;
#X connect 45 0 48 0;
#X connect 46 0 47 0;
#X connect 47 0 29 1;
#X connect 47 1 35 1;
#X connect 47 2 36 1;
#X connect 47 3 42 1;
#X connect 47 4 53 1;
#X connect 47 5 54 1;
#X connect 48 0 29 0;
#X connect 48 1 35 0;
#X connect 48 2 36 0;
#X connect 48 3 42 0;
#X connect 48 4 53 0;
#X connect 48 5 54 0;
#X connect 51 0 50 0;
#X connect 52 0 49 0;
#X connect 53 0 52 4;
#X connect 53 1 51 4;
#X connect 54 0 52 5;
#X connect 54 1 51 5;
#X connect 55 0 34 0;
#X connect 56 0 45 0;
#X connect 57 0 46 0;
#X connect 58 0 15 0;
#X connect 59 0 23 0;
#X connect 60 0 65 0;
#X connect 61 0 5 0;
#X connect 62 0 6 0;
#X connect 63 0 59 0;
#X connect 64 0 41 0;
#X connect 65 0 66 0;
#X connect 66 0 19 0;
#X restore 326 321 pd cross&mutation;
#N canvas 0 615 748 369 desgin_notes 0;
#X text 35 136 [11111111](8bit) = 255 [1111111111111111](16bit) = 65535
;
#X text 387 163 What's new...;
#X text 37 165 Multi-groupe_GA \; 昆虫ふう \; 集団サイズ(N)
= 20 \; 染色体数 = 4 \; 遺伝子型 : 整数((0 ~ 65535 )->二進数に変換のうえ分割
\; 交叉方法 : 1点交叉 \; ペア数(M) = 10 \; 交叉確率(Pc)(%)
= N / 2M * 100 \; 突然変異率 = 5% \; 選択法 : ルーレット選択
\; 集団数 = 5 \; 集団間の差異の大きさを評価関数とする
\;, f 47;
#X text 396 226 2500>pitch;
#X floatatom 514 234 5 0 0 0 - - -;
#X obj 514 257 mtof;
#X floatatom 514 281 5 0 0 0 - - -;
#X floatatom 554 234 5 0 0 0 - - -;
#X floatatom 554 281 5 0 0 0 - - -;
#X obj 554 257 ftom;
#X text 386 180 05:種ごとの演算の時間をずらし個別に行う
\; 06:評価関数とパラメータのマッピングの洗練化
\; A01~:評価関数の見直し。新ボイス;
#X text 424 8 comment, f 100;
#X text 37 8 PARAMETERs \; 1_pitch...........................bit 0
~ 255__gene1 \; 2_cycle-length....................bit 0 ~ 255__gene2
\; 3_cycle-frequency.................bit 0 ~ 255__gene2 \; 4_rest-length.....................bit
0 ~ 255__gene3 \; 5_env-width.......................bit 0 ~ 255__gene3
\; 6_env-form........................bit 0 ~ 255__gene4 \; 7_phasor-curve....................bit
0 ~ 255__gene4, f 54;
#X connect 4 0 5 0;
#X connect 5 0 6 0;
#X connect 7 0 9 0;
#X connect 9 0 8 0;
#X restore 265 353 pd desgin_notes;
#X obj 38 319 f;
#X obj 69 318 + 1;
#X obj 38 366 nbx 8 28 -1e+37 1e+37 0 0 empty empty empty 0 30 0 28
-262144 -1 -1 351 256;
#X msg 16 241 0;
#N canvas 0 23 450 300 metro2 0;
#X obj 69 94 t b b f;
#X obj 69 196 f;
#X obj 99 196 + 1;
#X obj 69 230 moses;
#X msg 69 128 1;
#X msg 104 128 0;
#X obj 136 128 - 1;
#X msg 136 196 0;
#X obj 69 264 outlet;
#X obj 69 45 inlet;
#X obj 239 45 inlet;
#X obj 69 162 metro;
#X obj 239 69 / 16;
#X msg 69 70 16;
#X floatatom 239 93 0 0 0 0 - - -;
#X connect 0 0 4 0;
#X connect 0 1 5 0;
#X connect 0 2 6 0;
#X connect 1 0 2 0;
#X connect 1 0 3 0;
#X connect 2 0 1 1;
#X connect 3 0 8 0;
#X connect 3 1 7 0;
#X connect 3 1 8 0;
#X connect 4 0 11 0;
#X connect 5 0 1 1;
#X connect 6 0 3 1;
#X connect 7 0 11 0;
#X connect 9 0 13 0;
#X connect 10 0 12 0;
#X connect 11 0 1 0;
#X connect 12 0 11 1;
#X connect 12 0 14 0;
#X connect 13 0 0 0;
#X restore 224 224 pd metro2;
#X obj 224 274 t f f f;
#X floatatom 477 298 0 0 0 0 - - -;
#X floatatom 326 298 0 0 0 0 - - -;
#X floatatom 224 298 0 0 0 0 - - -;
#N canvas 675 23 923 537 array 0;
#N canvas 0 22 450 278 (subpatch) 0;
#X array mgGA01_fitness_g1 40 float 3;
#A 0 0.20083 0.253475 0.439957 0.617562 0.619093 0.408943 0.203066
0.50809 0.439957 0.367232 0.510423 0.756343 0.336647 0.182062 0.628716
4.32152e-10 0.466127 0.367232 0.812429 0.182062 4.32152e-10 0.75717
0.182759 0.601289 0.367232 4.32152e-10 0.182062 1 0.796971 0.202291
0.762111 0.256297 0.756874 0.185462 0.161833 0.188659 0.357841 0.765031
4.32152e-10 0.888291;
#X coords 0 1 40 0 200 20 1 0 0;
#X restore 340 72 graph;
#N canvas 0 22 450 278 (subpatch) 0;
#X array mgGA01_fitness_g0 40 float 3;
#A 0 0.136909 0.263263 1.34805e-10 0.18449 1 0.994393 0.44212 0.400025
1.34805e-10 0.163001 0.453213 0.60673 1.34805e-10 0.265246 0.993502
0.265008 0.415251 1.34805e-10 0.949357 0.137681 1.34805e-10 0.606185
0.894525 0.397408 0.951061 0.607274 0.136909 0.455041 0.18449 0.453213
0.443741 1 0.263263 0.951061 1.34805e-10 0.265008 1.34805e-10 0.397069
1.34805e-10 0.184663;
#X coords 0 1 40 0 200 20 1 0 0;
#X restore 340 36 graph;
#N canvas 0 22 450 278 (subpatch) 0;
#X array mgGA01_fitness_g2 40 float 3;
#A 0 0.760932 0.720727 0.615312 2.79971e-11 2.79971e-11 0.744801 2.79971e-11
2.79971e-11 0.162191 2.79971e-11 0.844212 2.79971e-11 2.79971e-11 2.79971e-11
0.572623 0.565649 0.335635 0.397261 0.386948 0.406115 0.142137 2.79971e-11
2.79971e-11 0.836414 2.79971e-11 0.369522 0.839008 0.712646 0.8349
0.163922 0.215273 0.578056 1 0.954897 0.523177 0.626055 0.296991 2.79971e-11
0.162403 0.709276;
#X coords 0 1 40 0 200 20 1 0 0;
#X restore 340 108 graph;
#N canvas 0 22 450 278 (subpatch) 0;
#X array mgGA01_fitness_g3 40 float 3;
#A 0 0.512254 0.143078 0.845581 0.248981 0.724497 0.904796 0.724497
0.981136 0.751884 0.751847 0.845581 0.638189 0.875414 0.843343 0.248981
0.142645 0.725866 0.139577 1 0.724497 0.132066 0.248981 0.725207 0.21363
0.348509 0.720625 0.638189 0.153859 0.770564 0.638189 0.158927 0.13503
0.144806 0.165658 0.509639 0.246135 0.159648 0.343322 0.14437 0.153859
;
#X coords 0 1 40 0 200 20 1 0 0;
#X restore 340 144 graph;
#N canvas 0 22 450 278 (subpatch) 0;
#X array mgGA01_fitness_g4 40 float 3;
#A 0 0.177109 0.343669 0.303143 0.303143 0.391598 0.356342 0.382087
0.91755 0.320473 0.694359 0.176095 1 0.352223 0.225158 0.478216 0.64418
0.382087 0.225158 0.356342 0.330008 0.430132 0.188788 0.792506 0.91755
0.562144 0.202519 0.64418 0.77198 0.356342 0.694359 0.356342 0.694359
0.320513 0.352223 0.365295 0.694359 0.77198 0.219338 0.650088 0.64418
;
#X coords 0 1 40 0 200 20 1 0 0;
#X restore 340 180 graph;
#X obj 374 400 bng 15 250 50 0 empty empty empty 17 7 0 10 -262144
-1 -1;
#X obj 374 420 s rename;
#N canvas 0 22 450 278 (subpatch) 0;
#X array mgGA01_fitness_g6 40 float 3;
#A 0 1.54156e-11 0.863128 0.767063 0.522851 0.456171 1 0.169778 0.512792
0.767063 0.767063 0.180014 1.54156e-11 0.594698 1.54156e-11 0.180014
0.430383 1 1.54156e-11 0.431286 1.54156e-11 0.656344 1 0.759063 1.54156e-11
0.594698 1.54156e-11 0.445719 0.863128 0.180014 1.54156e-11 0.47959
1.54156e-11 0.596382 0.221335 0.221335 1.54156e-11 1.54156e-11 0.594698
1.54156e-11 1.54156e-11;
#X coords 0 1 40 0 200 20 1 0 0;
#X restore 340 252 graph;
#N canvas 0 22 450 278 (subpatch) 0;
#X array mgGA01_fitness_g5 40 float 3;
#A 0 0.659492 0.370486 0.509138 1.73395e-11 0.659492 1 0.396004 0.370486
1.73395e-11 1.73395e-11 0.352268 0.349904 1.73395e-11 0.370486 0.208975
1 1.73395e-11 0.351609 0.536111 0.395302 1.73395e-11 1.73395e-11 0.970149
0.39811 1.73395e-11 1 0.352268 1.73395e-11 0.39811 1.73395e-11 1.73395e-11
0.408189 0.327275 0.482901 1.73395e-11 0.396004 0.34765 0.49776 0.482901
0.350927;
#X coords 0 1 40 0 200 20 1 0 0;
#X restore 340 216 graph;
#N canvas 0 22 450 278 (subpatch) 0;
#X array mgGA01_fitness_g7 40 float 3;
#A 0 0.557034 0.392071 0.153205 0.110232 2.67819e-11 2.67819e-11 2.67819e-11
0.862894 1 2.67819e-11 0.944965 2.67819e-11 0.459909 2.67819e-11 0.942664
0.141189 0.457497 0.301628 0.242137 0.379696 0.984026 0.15455 0.975608
0.381786 2.67819e-11 0.84602 0.854457 0.455551 0.889776 0.378155 0.141753
0.822624 0.157433 0.942664 0.385594 0.427225 0.427225 2.67819e-11 0.401019
0.110232;
#X coords 0 1 40 0 200 20 1 0 0;
#X restore 340 288 graph;
#N canvas 0 22 450 278 (subpatch) 0;
#X array mgGA01_fitness_g8 40 float 3;
#A 0 1 1 1 1 1 1 1 1 1 1 1 1 1 1 1 1 1 1 1 1 1 1 1 1 1 1 1 1 1 1 1
1 1 1 1 1 1 1 1 1;
#X coords 0 1 40 0 200 20 1 0 0;
#X restore 556 36 graph;
#N canvas 0 22 450 278 (subpatch) 0;
#X array mgGA01_fitness_g9 40 float 3;
#A 0 0.85132 2.43145e-10 0.522871 1 0.530111 0.468624 0.87406 2.43145e-10
0.786013 0.780765 0.998627 0.481923 0.322103 0.267871 2.43145e-10 0.353774
0.85132 0.85132 2.43145e-10 0.871145 0.100801 0.471774 0.165285 2.43145e-10
0.165285 0.825536 0.439077 0.802923 0.108952 0.471774 0.358619 2.43145e-10
0.714875 0.308083 0.167233 0.499975 0.504334 0.567118 0.446696 0.890081
;
#X coords 0 1 40 0 200 20 1 0 0;
#X restore 556 72 graph;
#N canvas 0 22 450 278 (subpatch) 0;
#X array mgGA01_fitness_g11 40 float 3;
#A 0 0.502887 0.223768 0.282944 0.499662 0.502719 0.498302 0.412794
0.972071 0.656649 5.21065e-11 0.133469 0.372136 0.893052 5.21065e-11
0.661351 0.490018 0.498811 0.377693 0.120266 5.21065e-11 1 0.133433
0.500849 0.120266 0.541633 0.995931 1 0.13375 0.694393 0.371379 0.500849
0.13307 0.380887 0.134821 0.500681 0.412794 0.767034 0.54385 0.166222
0.167243;
#X coords 0 1 40 0 200 20 1 0 0;
#X restore 556 144 graph;
#N canvas 0 22 450 278 (subpatch) 0;
#X array mgGA01_fitness_g10 40 float 3;
#A 0 0.360379 0.730558 1.64361e-10 1.64361e-10 0.938999 0.256018 0.416497
0.583972 0.416497 0.318414 0.39788 0.53137 0.938999 0.727233 0.996737
1.64361e-10 1.64361e-10 0.938999 0.533799 0.440278 0.440278 0.739301
0.542038 0.357241 0.827325 0.462588 0.48752 0.416497 0.416497 0.209299
1 0.79912 0.416497 0.333497 0.938999 0.583972 0.938999 0.483999 0.995106
0.48752;
#X coords 0 1 40 0 200 20 1 0 0;
#X restore 556 108 graph;
#N canvas 0 22 450 278 (subpatch) 0;
#X array mgGA01_fitness_g12 40 float 3;
#A 0 0.594879 1 0.0982337 0.53599 0.143756 0.105032 0.325815 0.119478
0.330084 0.127747 0.571654 0.0680524 0.574293 0.127747 0.217043 0.305261
0.10756 0.245777 0.246214 0.726117 0.375648 0.224424 0.593823 0.594879
0.240383 0.223826 0.158895 0.245122 0.792069 0.143756 0.14152 0.147951
0.141143 0.109829 0.157041 0.59224 0.752146 0.311655 0.364706 0.119478
;
#X coords 0 1 40 0 200 20 1 0 0;
#X restore 556 180 graph;
#N canvas 0 22 450 278 (subpatch) 0;
#X array mgGA01_fitness_g13 40 float 3;
#A 0 1 0.541018 0.490304 0.488179 0.605844 0.541018 0.617794 0.509071
0.187223 0.57634 0.793637 0.706195 0.486847 0.859589 0.782585 3.09176e-10
0.680492 0.147943 0.57634 0.122573 3.09176e-10 0.726201 0.604762 0.0877545
0.588475 0.74327 0.936537 0.936537 0.357038 0.740049 0.722736 0.936537
0.908205 0.759528 0.740049 0.507543 0.492082 0.388842 0.740049 0.122573
;
#X coords 0 1 40 0 200 20 1 0 0;
#X restore 556 216 graph;
#N canvas 0 22 450 278 (subpatch) 0;
#X array mgGA01_fitness_g14 40 float 3;
#A 0 0.204609 1 0.17648 0.594327 0.685272 0.822861 2.33515e-10 0.858101
0.729772 0.675109 0.914899 0.424379 0.876432 0.204926 0.912972 0.690225
0.623746 0.914899 0.933628 0.874769 0.756427 2.33515e-10 0.727161 0.182238
0.627261 0.806164 0.738157 0.731298 0.645957 0.892992 0.610043 0.508288
0.870147 0.516153 0.457069 0.57458 0.443662 0.687265 0.7427 0.729772
;
#X coords 0 1 40 0 200 20 1 0 0;
#X restore 556 252 graph;
#N canvas 0 22 450 278 (subpatch) 0;
#X array mgGA01_fitness_g15 40 float 3;
#A 0 1 1 1 1 1 1 1 1 1 1 1 1 1 1 1 1 1 1 1 1 1 1 1 1 1 1 1 1 1 1 1
1 1 1 1 1 1 1 1 1;
#X coords 0 1 40 0 200 20 1 0 0;
#X restore 556 288 graph;
#X obj 373 375 loadbang;
#N canvas 0 22 450 278 (subpatch) 0;
#X array mgGA01_sub1 16 float 3;
#A 0 96.9176 102.729 105.329 105.329 110.071 110.071 110.071 110.071
114.353 118.635 119.859 119.859 126.282 129.8 134.847 134.847;
#X coords 0 150 16 0 100 70 1 0 0;
#X restore 776 58 graph;
#N canvas 0 22 450 278 (subpatch) 0;
#X array mgGA01_sub2 16 float 3;
#A 0 0 1 3 2 7 6 5 4 8 9 13 10 11 12 15 14;
#X coords 0 20 16 0 100 70 1 0 0;
#X restore 776 168 graph;
#N canvas 0 22 450 278 (subpatch) 0;
#X array mgGA01_sub2B 16 float 3;
#A 0 0 1 3 2 7 6 5 4 8 9 11 12 13 10 15 14;
#X coords 0 16 16 0 100 70 1 0 0;
#X restore 776 278 graph;
#X text 882 86 音程;
#X text 776 349 種番号0~15-->;
#X text 876 284 音 \; 程 \; 順 \; 位;
#X text 876 174 種 \; 番 \; 号;
#X text 776 239 音程順位;
#N canvas 0 22 450 278 (subpatch) 0;
#X array sel_species 16 float 3;
#A 0 0.330007 0.170007 0.260007 0.380007 0.690006 0.330007 0.180006
0.100008 0.160007 0.170007 0.210007 0.180007 0.830007 0.510007 0.510008
0.630007;
#X coords 0 1 16 0 200 70 1 0 0;
#X restore 546 339 graph;
#X msg 364 447 \; sel_species const 0.1;
#X obj 439 400 bng 15 250 50 0 empty empty empty 17 7 0 10 -262144
-1 -1;
#X obj 439 420 s resize;
#X text 372 338 genesize:6 \, x20 \; now120 \, next240;
#X obj 24 36 multi-groupe_GA_study_genearray02 0 120 240;
#X obj 24 66 multi-groupe_GA_study_genearray02 1 120 240;
#X obj 24 96 multi-groupe_GA_study_genearray02 2 120 240;
#X obj 24 126 multi-groupe_GA_study_genearray02 3 120 240;
#X obj 24 156 multi-groupe_GA_study_genearray02 4 120 240;
#X obj 24 186 multi-groupe_GA_study_genearray02 5 120 240;
#X obj 24 216 multi-groupe_GA_study_genearray02 6 120 240;
#X obj 24 246 multi-groupe_GA_study_genearray02 7 120 240;
#X obj 24 276 multi-groupe_GA_study_genearray02 8 120 240;
#X obj 24 306 multi-groupe_GA_study_genearray02 9 120 240;
#X obj 24 336 multi-groupe_GA_study_genearray02 10 120 240;
#X obj 24 366 multi-groupe_GA_study_genearray02 11 120 240;
#X obj 24 396 multi-groupe_GA_study_genearray02 12 120 240;
#X obj 24 426 multi-groupe_GA_study_genearray02 13 120 240;
#X obj 24 456 multi-groupe_GA_study_genearray02 14 120 240;
#X obj 24 486 multi-groupe_GA_study_genearray02 15 120 240;
#N canvas 0 22 450 278 (subpatch) 0;
#X array sel_rest 16 float 3;
#A 0 0.38 0.52 0.43 0.32 0.46 0.47 0.58 0.53 0.46 0.37 0.29 0.52 0.18
0.52 0.53 0.28;
#X coords 0 1 16 0 200 70 1 0 0;
#X restore 546 429 graph;
#X msg 364 487 \; sel_rest const 0.1;
#X connect 5 0 6 0;
#X connect 5 0 28 0;
#X connect 5 0 49 0;
#X connect 18 0 5 0;
#X connect 18 0 29 0;
#X connect 29 0 30 0;
#X restore 384 353 pd array;
#N canvas 124 89 299 271 seed 0;
#X obj 122 58 bng 15 250 50 0 empty empty empty 17 7 0 10 -262144 -1
-1;
#X obj 189 58 loadbang;
#X obj 31 127 adcSeed2 78 seed4v1-;
#X obj 31 151 adcSeed2 78 seed4v2-;
#X obj 31 104 adcSeed2 30 seed;
#X obj 31 175 adcSeed2 78 seed4v3-;
#X obj 31 199 adcSeed2 78 seed4v4-;
#X obj 122 34 r 15th;
#X obj 189 106 del 2;
#X obj 189 130 del 2;
#X obj 189 154 del 2;
#X obj 189 178 del 2;
#X obj 189 82 del 100;
#X connect 0 0 12 0;
#X connect 1 0 12 0;
#X connect 7 0 0 0;
#X connect 8 0 2 0;
#X connect 8 0 9 0;
#X connect 9 0 3 0;
#X connect 9 0 10 0;
#X connect 10 0 5 0;
#X connect 10 0 11 0;
#X connect 11 0 6 0;
#X connect 12 0 4 0;
#X connect 12 0 8 0;
#X restore 456 353 pd seed;
#X obj 37 295 sel 15;
#X obj 37 270 spigot;
#X obj 101 316 s 15th;
#X obj 38 423 print generations>>>;
#X obj 177 32 inlet;
#X obj 42 38 inlet;
#X obj 436 30 inlet;
#X obj 16 199 bng 15 250 50 0 empty empty reset 17 7 0 10 -262144 -1
-1;
#X obj 244 27 inlet;
#X obj 353 34 inlet;
#X obj 353 58 * 100;
#X floatatom 353 82 5 0 0 0 - - -;
#X obj 330 392 loadbang;
#X obj 48 399 outlet;
#X floatatom 436 54 5 0 0 0 - - -;
#N canvas 715 23 464 503 make_gene_cricket 0;
#X obj 112 28 inlet;
#X obj 112 59 bng 15 250 50 0 empty empty empty 17 7 0 10 -262144 -1
-1;
#X obj 112 126 until;
#X obj 112 150 f;
#X msg 166 119 0;
#X obj 112 79 t b b;
#X msg 112 102 16;
#X msg 187 151 symbol mgGA01_gene_now_g\$1;
#X obj 112 332 array set mgGA01_gene_now_g0 0 6;
#X msg 112 198 20;
#X obj 112 222 until;
#X obj 142 151 + 1;
#X obj 112 246 f;
#X obj 142 246 + 6;
#X obj 112 270 t b f;
#X obj 112 174 t b f b;
#X msg 156 197 0;
#X msg 112 294 42557 42509 9227 12034 65280 2048;
#X connect 0 0 1 0;
#X connect 1 0 5 0;
#X connect 2 0 3 0;
#X connect 3 0 11 0;
#X connect 3 0 15 0;
#X connect 4 0 3 1;
#X connect 5 0 6 0;
#X connect 5 1 4 0;
#X connect 6 0 2 0;
#X connect 7 0 8 2;
#X connect 9 0 10 0;
#X connect 10 0 12 0;
#X connect 11 0 3 1;
#X connect 12 0 13 0;
#X connect 12 0 14 0;
#X connect 13 0 12 1;
#X connect 14 0 17 0;
#X connect 14 1 8 1;
#X connect 15 0 9 0;
#X connect 15 1 7 0;
#X connect 15 2 16 0;
#X connect 16 0 12 1;
#X connect 17 0 8 0;
#X restore 465 168 pd make_gene_cricket;
#N canvas 324 23 426 424 make_gene_random 0;
#X obj 24 27 inlet;
#X obj 24 58 bng 15 250 50 0 empty empty empty 17 7 0 10 -262144 -1
-1;
#X msg 274 98 6;
#X obj 274 122 t f b;
#X obj 274 146 until;
#X obj 274 170 f;
#X obj 304 170 + 1;
#X msg 318 146 0;
#X obj 274 290 array define mgr 6;
#X obj 306 218 random 65264;
#X obj 306 242 + 271;
#X obj 274 266 pack 0 0;
#X obj 274 194 t f b;
#X obj 24 78 t b b;
#X obj 24 126 t f b;
#X obj 24 150 until;
#X obj 24 174 f;
#X obj 54 174 + 1;
#X msg 68 150 0;
#X msg 24 102 16;
#X obj 24 198 t b f;
#X obj 24 246 t f b;
#X obj 24 270 until;
#X obj 24 294 f;
#X msg 68 270 0;
#X obj 24 318 t b f;
#X msg 24 222 20;
#X obj 54 294 + 6;
#X obj 24 343 array get mgr 0 6;
#X msg 67 224 symbol mgGA01_gene_now_g\$1;
#X obj 24 367 array set test 0;
#X obj 335 189 r seed29;
#X obj 249 315 print;
#X connect 0 0 1 0;
#X connect 1 0 13 0;
#X connect 2 0 3 0;
#X connect 3 0 4 0;
#X connect 3 1 7 0;
#X connect 4 0 5 0;
#X connect 5 0 6 0;
#X connect 5 0 12 0;
#X connect 6 0 5 1;
#X connect 7 0 5 1;
#X connect 9 0 10 0;
#X connect 10 0 11 1;
#X connect 11 0 8 0;
#X connect 12 0 11 0;
#X connect 12 1 9 0;
#X connect 13 0 19 0;
#X connect 13 1 2 0;
#X connect 14 0 15 0;
#X connect 14 1 18 0;
#X connect 15 0 16 0;
#X connect 16 0 17 0;
#X connect 16 0 20 0;
#X connect 17 0 16 1;
#X connect 18 0 16 1;
#X connect 19 0 14 0;
#X connect 20 0 26 0;
#X connect 20 1 29 0;
#X connect 21 0 22 0;
#X connect 21 1 24 0;
#X connect 22 0 23 0;
#X connect 23 0 25 0;
#X connect 23 0 27 0;
#X connect 24 0 23 1;
#X connect 25 0 28 0;
#X connect 25 1 30 1;
#X connect 26 0 21 0;
#X connect 27 0 23 1;
#X connect 28 0 30 0;
#X connect 29 0 30 2;
#X connect 31 0 9 0;
#X restore 435 193 pd make_gene_random;
#X obj 436 77 sel 0 1;
#X obj 465 148 bng 15 250 50 0 empty empty empty 17 7 0 10 -262144
-1 -1;
#X msg 330 416 \; calculation_speedR 2000 \; mutationR 5;
#X msg 320 492 \; resetR 0;
#X obj 320 468 del 210;
#X obj 86 73 f;
#X obj 118 74 b;
#X connect 0 0 37 0;
#X connect 2 0 6 0;
#X connect 2 0 22 1;
#X connect 4 0 5 0;
#X connect 6 0 14 0;
#X connect 7 0 6 1;
#X connect 7 0 14 1;
#X connect 10 0 11 0;
#X connect 10 0 12 0;
#X connect 11 0 10 1;
#X connect 12 0 24 0;
#X connect 12 0 34 0;
#X connect 13 0 10 1;
#X connect 14 0 15 0;
#X connect 15 0 18 0;
#X connect 15 0 22 0;
#X connect 15 1 17 0;
#X connect 15 2 16 0;
#X connect 16 0 3 0;
#X connect 17 0 8 0;
#X connect 18 0 1 0;
#X connect 21 0 10 0;
#X connect 21 0 23 0;
#X connect 22 0 21 0;
#X connect 25 0 2 0;
#X connect 26 0 4 0;
#X connect 26 0 43 1;
#X connect 27 0 28 0;
#X connect 27 0 35 0;
#X connect 27 0 44 0;
#X connect 28 0 13 0;
#X connect 29 0 7 0;
#X connect 30 0 31 0;
#X connect 31 0 32 0;
#X connect 32 0 8 1;
#X connect 33 0 40 0;
#X connect 33 0 42 0;
#X connect 35 0 38 0;
#X connect 38 0 0 0;
#X connect 38 1 39 0;
#X connect 39 0 36 0;
#X connect 42 0 41 0;
#X connect 43 0 4 0;
#X connect 44 0 43 0;
#X restore 118 516 pd main;
#X f 10;
#X obj 47 301 tgl 15 0 empty empty play 17 7 0 10 -260097 -1 -1 1 1
;
#X obj 101 339 tgl 15 0 empty empty calculation 17 7 0 10 -4034 -1
-1 1 1;
#X floatatom 144 391 0 0 0 2 calculation_speed(ms) calculation_speedR
-;
#X floatatom 200 432 0 0 0 2 mutation(%) mutationR -;
#X floatatom 118 540 0 0 0 3 generations - -;
#X obj 262 474 vradio 15 1 0 2 empty resetR reset_mode 0 -8 0 10 -257985
-1 -1 0;
#X text 279 472 0:random;
#X text 279 488 1:cricket;
#N canvas 0 23 450 323 English 0;
#X text 10 29 This patch is a program that simulates the co-evolution
of the voice of living organisms based on the hypothesis of acoustic
ecology. A group of 16 genes evolves the characteristics of each "voice"
using a genetic algorithm. The basis of evolution is the "difference"
from the parameters of other species' voices. Characteristic voices
that are clearly distinguishable from other species increase the efficiency
of intra-species communication \, and it is thought that such sound
traits are spread throughout the population. In other words \, species
that share the same living environment are under the pressure of evolution
to sharpen their individuality. In this patch \, by comparing the numerical
value of the "gene" of the individual that is converted into the parameter
of acoustic synthesis with the numerical value of the gene of the individual
of another species \, and calculating the magnitude of the difference
as the fitness of the individual \, It imitates such an evolutionary
process "superficially”.;
#X restore 384 239 pd English;
#X obj 25 33 cnv 15 20 20 empty empty VIRTUAL 0 12 0 30 -262144 -66577
0;
#X obj 165 33 cnv 15 20 20 empty empty HABITAT 0 12 0 30 -262144 -66577
0;
#X text 23 64 by Hayashi Nobuhiko \, 2020;
#X obj 49 278 cnv 15 10 10 empty empty v 0 12 0 20 -262144 -66577 0
;
#X obj 102 317 cnv 15 10 10 empty empty v 0 12 0 20 -262144 -66577
0;
#X text 63 281 音を生成;
#X text 117 320 進化計算を開始;
#X text 207 320 start_evolutionary_calculation(make_a_new_genaration)
, f 30;
#X text 182 391 進化の速さ(xxミリ秒に1世代);
#X text 232 431 突然変異の出現確率;
#X text 116 576 世代数;
#X text 261 509 reset all genes(2 modes);
#X text 260 525 全ての遺伝子を初期化(2種類);
#X text 18 108 このパッチは、音響生態学の仮説にもとづき、生物の声の共進化を模擬したプログラムです。16の遺伝子集団が、それぞれの「声」の特徴を遺伝的アルゴリズムによって進化させてゆきます。進化の基準になるのは、他の種の声のパラメーターとの「差異」です。他種に対して明確に区別ができる特徴的な声は種内コミュニケーションの効率を上げるため、そのような音の形質は集団全体に広がると考えられます。別の表現をすると、生活環境を同じくする生物種は、各々の個性を先鋭化する進化の圧を受けています。このパッチでは、音響合成のパラメーターに変換される個体の「遺伝子」の数値を他種の個体の遺伝子の数値と比較し、その差分の大きさを個体の適応度として計算することで、上記のような進化過程を「表層的に」模倣し
います。, f 37;
#X connect 1 0 6 0;
#X connect 2 0 1 0;
#X connect 3 0 1 1;
#X connect 4 0 1 2;
#X connect 5 0 1 3;
#X connect 7 0 1 4;
